<?xml version="1.0" encoding="utf-8"?>
<!-- Generator: Adobe Illustrator 26.2.1, SVG Export Plug-In . SVG Version: 6.00 Build 0)  -->
<svg version="1.1" id="Layer_1" xmlns="http://www.w3.org/2000/svg" xmlns:xlink="http://www.w3.org/1999/xlink" x="0px" y="0px"
	 viewBox="0 0 328 55" style="enable-background:new 0 0 328 55;" xml:space="preserve">
<style type="text/css">
	.st0{fill:#000000;}
	
		.st1{clip-path:url(#SVGID_00000049222434931667290860000010172191440151293063_);fill:url(#SVGID_00000004542393057460767900000000937170055385322119_);}
	.st2{fill:#D1D3D4;}
	
		.st3{clip-path:url(#SVGID_00000024693731783450738460000000092421428466976695_);fill:url(#SVGID_00000106839898276912662790000017160665320891346862_);}
	.st4{fill:#D3AE06;}
	
		.st5{clip-path:url(#SVGID_00000178922864503337160580000002600190980250519984_);fill:url(#SVGID_00000168801616114417803860000010321905073852360607_);}
	
		.st6{clip-path:url(#SVGID_00000030459090264113616480000011619468281716801970_);fill:url(#SVGID_00000123406555872561809070000015422581849954727810_);}
	
		.st7{clip-path:url(#SVGID_00000150821689652986814700000007688247943353782158_);fill:url(#SVGID_00000036247544120735779600000011982599251356342424_);}
	
		.st8{clip-path:url(#SVGID_00000037693187875903902770000005943979613541223040_);fill:url(#SVGID_00000085243244545168380840000015218135162101824643_);}
	
		.st9{clip-path:url(#SVGID_00000053530846923865236940000015387326287535096484_);fill:url(#SVGID_00000021086578646763360720000011202897314724407948_);}
	.st10{fill:#BE1229;}
	
		.st11{clip-path:url(#SVGID_00000021808955730378720880000016349274575169349305_);fill:url(#SVGID_00000115485531561154099200000000885928418617745597_);}
	
		.st12{clip-path:url(#SVGID_00000061465106585589800470000007898498432163858866_);fill:url(#SVGID_00000115503940979859325180000008908156640629411715_);}
	
		.st13{clip-path:url(#SVGID_00000165220208890623885220000007991316587541154218_);fill:url(#SVGID_00000147220984317283323050000017235071071042768515_);}
	
		.st14{clip-path:url(#SVGID_00000164505458207721077060000012183860523499263664_);fill:url(#SVGID_00000046330418238591046290000014906789023776770454_);}
	
		.st15{clip-path:url(#SVGID_00000031914774844794822740000009991982163033759386_);fill:url(#SVGID_00000083808291657675076000000009278946900313744549_);}
	
		.st16{clip-path:url(#SVGID_00000020399384460789376300000012396769681979640741_);fill:url(#SVGID_00000008863681064647601510000002327649697849323675_);}
	
		.st17{clip-path:url(#SVGID_00000136407745366829609430000002148235424900226962_);fill:url(#SVGID_00000111882058145220086640000009142702080813047948_);}
	
		.st18{clip-path:url(#SVGID_00000173131299186515774430000013739406892723010702_);fill:url(#SVGID_00000125596514050905210610000008330409306632370335_);}
	
		.st19{clip-path:url(#SVGID_00000021092299359606176250000005409945068671498651_);fill:url(#SVGID_00000109021842936321729190000011475151287717819010_);}
	.st20{clip-path:url(#SVGID_00000113339002873548621730000017389468151474968203_);fill:#000000;}
	.st21{clip-path:url(#SVGID_00000101095621401684031560000011241424810515916445_);fill:#000000;}
	.st22{clip-path:url(#SVGID_00000123411261437000175390000009012099344815307913_);fill:#000000;}
</style>
<g>
	<path class="st0" d="M82.5,9.7v0.5c-0.8,0-1.4,0.2-1.7,0.5c-0.3,0.3-0.5,0.9-0.5,1.7v6.5c0,0.8-0.1,1.5-0.4,2.2
		c-0.2,0.7-0.7,1.4-1.2,2c-0.6,0.6-1.3,1.1-2.2,1.4c-0.9,0.4-2,0.5-3.3,0.5c-1.2,0-2.2-0.2-3-0.5c-0.9-0.3-1.6-0.7-2.2-1.3
		c-0.6-0.5-1-1.2-1.3-1.9c-0.3-0.7-0.4-1.5-0.4-2.4v-7c0-0.4,0-0.7-0.1-0.9c-0.1-0.2-0.2-0.4-0.3-0.5c-0.2-0.1-0.4-0.2-0.6-0.3
		c-0.3,0-0.6-0.1-1-0.1V9.7h6.2v0.5h-0.2c-0.7,0-1.2,0.1-1.5,0.3c-0.3,0.2-0.4,0.7-0.4,1.4v6.7c0,1.6,0.5,2.9,1.4,3.8
		c0.9,0.9,2.3,1.4,4.1,1.4c0.7,0,1.3-0.1,2-0.2s1.2-0.4,1.8-0.8c0.5-0.4,0.9-0.9,1.2-1.6c0.3-0.7,0.5-1.5,0.5-2.5V13
		c0-0.6,0-1-0.1-1.4c-0.1-0.4-0.2-0.6-0.3-0.8s-0.4-0.3-0.7-0.4c-0.3-0.1-0.7-0.1-1.2-0.2V9.7H82.5"/>
	<path class="st0" d="M86.3,18l-1.4,3.8c-0.1,0.2-0.2,0.5-0.3,0.8c-0.1,0.3-0.2,0.5-0.2,0.7c0,0.3,0.2,0.5,0.5,0.7
		c0.3,0.1,0.8,0.2,1.5,0.2h0.4v0.5h-5.5v-0.5c0.4,0,0.7,0,0.9-0.1c0.2-0.1,0.5-0.2,0.6-0.3c0.2-0.2,0.3-0.4,0.5-0.7
		c0.1-0.3,0.3-0.7,0.5-1.2l4.4-11.9l-0.2-0.5H90l5,13.3c0.1,0.3,0.2,0.6,0.4,0.8c0.1,0.2,0.3,0.4,0.5,0.5s0.4,0.2,0.6,0.2
		c0.2,0,0.5,0.1,0.8,0.1v0.5h-6.6v-0.5h0.6c0.7,0,1.2-0.1,1.5-0.2s0.4-0.3,0.4-0.7c0-0.2,0-0.4-0.1-0.5c-0.1-0.2-0.1-0.3-0.2-0.4
		L91.3,18H86.3 M88.7,11.4l-2,5.6h4.2L88.7,11.4z"/>
	<path class="st0" d="M98.7,21c0.3,1.1,0.8,1.9,1.5,2.5c0.8,0.6,1.6,0.9,2.5,0.9c0.4,0,0.8-0.1,1.2-0.2c0.4-0.1,0.8-0.3,1.1-0.5
		c0.3-0.2,0.6-0.5,0.8-0.9c0.2-0.4,0.3-0.8,0.3-1.2c0-0.6-0.2-1.1-0.6-1.5c-0.4-0.5-0.9-0.9-1.4-1.3c-0.6-0.4-1.2-0.8-1.8-1.2
		s-1.3-0.8-1.8-1.3c-0.6-0.4-1-0.9-1.4-1.5c-0.4-0.5-0.6-1.2-0.6-1.9c0-0.5,0.1-1,0.3-1.4c0.2-0.4,0.5-0.8,0.9-1.1
		c0.4-0.3,0.8-0.6,1.4-0.7c0.5-0.2,1.1-0.3,1.7-0.3c0.5,0,0.9,0,1.2,0.1c0.3,0.1,0.6,0.1,0.8,0.2c0.2,0.1,0.4,0.1,0.6,0.2
		c0.2,0.1,0.4,0.1,0.6,0.1c0.2,0,0.3-0.1,0.4-0.2h0.4l0.4,3h-0.4c-0.3-0.9-0.9-1.6-1.6-2.1c-0.7-0.5-1.5-0.8-2.3-0.8
		c-0.8,0-1.4,0.2-1.9,0.6c-0.5,0.4-0.7,1-0.7,1.6c0,0.6,0.2,1.1,0.6,1.5c0.4,0.4,0.9,0.9,1.4,1.3c0.6,0.4,1.2,0.8,1.8,1.2
		c0.7,0.4,1.3,0.8,1.8,1.3c0.6,0.5,1,1,1.4,1.5c0.4,0.6,0.6,1.2,0.6,1.9c0,0.6-0.1,1.1-0.4,1.6c-0.2,0.5-0.6,0.9-1,1.3
		c-0.4,0.4-0.9,0.7-1.5,0.9c-0.6,0.2-1.3,0.3-2,0.3c-0.3,0-0.7,0-1-0.1c-0.4-0.1-0.7-0.1-1-0.2c-0.3-0.1-0.6-0.2-0.8-0.2
		c-0.2-0.1-0.4-0.1-0.5-0.1c-0.2,0-0.4,0.1-0.5,0.3h-0.4L98.3,21H98.7"/>
	<path class="st0" d="M144.5,19.2h-0.5c0-0.4-0.1-0.8-0.2-1s-0.2-0.4-0.3-0.6c-0.1-0.1-0.3-0.2-0.5-0.3c-0.2,0-0.4-0.1-0.6-0.1h-4.1
		v5.2c0,0.6,0.1,0.9,0.3,1.1c0.2,0.2,0.5,0.2,1,0.2h3.7c0.4,0,0.8,0,1.1-0.1c0.3-0.1,0.5-0.2,0.7-0.4c0.2-0.2,0.4-0.5,0.5-0.8
		c0.2-0.4,0.3-0.8,0.4-1.3h0.4l-0.4,3.6h-12.7v-0.5h0.7c0.5,0,0.9,0,1.2-0.1c0.3-0.1,0.5-0.2,0.7-0.3c0.2-0.2,0.3-0.4,0.3-0.6
		s0.1-0.6,0.1-0.9V12.1c0-0.7-0.1-1.2-0.4-1.5c-0.2-0.3-0.8-0.5-1.6-0.5h-0.5V9.7h11.5l0.2,3.3h-0.4c-0.1-0.5-0.2-0.9-0.3-1.2
		s-0.2-0.6-0.4-0.8c-0.2-0.2-0.3-0.3-0.5-0.4c-0.2-0.1-0.4-0.1-0.6-0.1h-5.1v5.9h4.3c0.4,0,0.8-0.1,1-0.4s0.4-0.7,0.4-1.4h0.5V19.2"
		/>
	<path class="st0" d="M150,21c0.3,1.1,0.8,1.9,1.5,2.5c0.8,0.6,1.6,0.9,2.5,0.9c0.4,0,0.8-0.1,1.2-0.2c0.4-0.1,0.8-0.3,1.1-0.5
		s0.6-0.5,0.8-0.9c0.2-0.4,0.3-0.8,0.3-1.2c0-0.6-0.2-1.1-0.6-1.5c-0.4-0.5-0.9-0.9-1.4-1.3c-0.6-0.4-1.2-0.8-1.8-1.2
		s-1.3-0.8-1.8-1.3c-0.6-0.4-1-0.9-1.4-1.5c-0.4-0.5-0.6-1.2-0.6-1.9c0-0.5,0.1-1,0.3-1.4c0.2-0.4,0.5-0.8,0.9-1.1s0.8-0.6,1.4-0.7
		c0.5-0.2,1.1-0.3,1.7-0.3c0.5,0,0.9,0,1.2,0.1c0.3,0.1,0.6,0.1,0.8,0.2c0.2,0.1,0.4,0.1,0.6,0.2c0.2,0.1,0.4,0.1,0.6,0.1
		c0.2,0,0.3-0.1,0.4-0.2h0.4l0.4,3H158c-0.3-0.9-0.9-1.6-1.6-2.1c-0.7-0.5-1.5-0.8-2.3-0.8c-0.8,0-1.4,0.2-1.9,0.6
		c-0.5,0.4-0.7,1-0.7,1.6c0,0.6,0.2,1.1,0.6,1.5c0.4,0.4,0.9,0.9,1.4,1.3c0.6,0.4,1.2,0.8,1.8,1.2c0.7,0.4,1.3,0.8,1.8,1.3
		c0.6,0.5,1,1,1.4,1.5c0.4,0.6,0.6,1.2,0.6,1.9c0,0.6-0.1,1.1-0.4,1.6c-0.2,0.5-0.6,0.9-1,1.3c-0.4,0.4-0.9,0.7-1.5,0.9
		c-0.6,0.2-1.3,0.3-2,0.3c-0.3,0-0.7,0-1-0.1c-0.4-0.1-0.7-0.1-1-0.2c-0.3-0.1-0.6-0.2-0.8-0.2c-0.2-0.1-0.4-0.1-0.5-0.1
		c-0.2,0-0.4,0.1-0.5,0.3h-0.4l-0.5-3.6H150"/>
	<path class="st0" d="M172.3,19.2h-0.5c0-0.4-0.1-0.8-0.2-1s-0.2-0.4-0.3-0.6c-0.1-0.1-0.3-0.2-0.5-0.3c-0.2,0-0.4-0.1-0.6-0.1h-4.1
		v5.2c0,0.6,0.1,0.9,0.3,1.1c0.2,0.2,0.5,0.2,1,0.2h3.7c0.4,0,0.8,0,1.1-0.1c0.3-0.1,0.5-0.2,0.7-0.4c0.2-0.2,0.4-0.5,0.5-0.8
		c0.2-0.4,0.3-0.8,0.4-1.3h0.4l-0.4,3.6h-12.7v-0.5h0.7c0.5,0,0.9,0,1.2-0.1c0.3-0.1,0.5-0.2,0.7-0.3c0.2-0.2,0.3-0.4,0.3-0.6
		c0.1-0.2,0.1-0.6,0.1-0.9V12.1c0-0.7-0.1-1.2-0.4-1.5c-0.2-0.3-0.8-0.5-1.6-0.5h-0.5V9.7h11.5l0.2,3.3H173
		c-0.1-0.5-0.2-0.9-0.3-1.2c-0.1-0.3-0.2-0.6-0.4-0.8c-0.2-0.2-0.3-0.3-0.5-0.4c-0.2-0.1-0.4-0.1-0.6-0.1h-5.1v5.9h4.3
		c0.4,0,0.8-0.1,1-0.4c0.2-0.2,0.4-0.7,0.4-1.4h0.5V19.2"/>
	<path class="st0" d="M180.4,18l-1.4,3.8c-0.1,0.2-0.2,0.5-0.3,0.8c-0.1,0.3-0.2,0.5-0.2,0.7c0,0.3,0.2,0.5,0.5,0.7
		c0.3,0.1,0.8,0.2,1.5,0.2h0.4v0.5h-5.5v-0.5c0.4,0,0.7,0,0.9-0.1s0.5-0.2,0.6-0.3c0.2-0.2,0.3-0.4,0.5-0.7s0.3-0.7,0.5-1.2
		l4.4-11.9l-0.2-0.5h2.1l5,13.3c0.1,0.3,0.2,0.6,0.4,0.8c0.1,0.2,0.3,0.4,0.5,0.5c0.2,0.1,0.4,0.2,0.6,0.2c0.2,0,0.5,0.1,0.8,0.1
		v0.5h-6.6v-0.5h0.6c0.7,0,1.2-0.1,1.5-0.2s0.4-0.3,0.4-0.7c0-0.2,0-0.4-0.1-0.5c-0.1-0.2-0.1-0.3-0.2-0.4l-1.6-4.4H180.4
		 M182.9,11.4l-2,5.6h4.2L182.9,11.4z"/>
	<path class="st0" d="M221.7,13.7c-0.4-1.1-1.1-2-2.1-2.7c-1-0.7-2.1-1-3.4-1c-1,0-1.9,0.2-2.7,0.5c-0.8,0.3-1.5,0.8-2,1.4
		c-0.6,0.6-1,1.4-1.3,2.2c-0.3,0.8-0.5,1.8-0.5,2.8c0,1.1,0.2,2.1,0.5,3c0.4,0.9,0.9,1.7,1.5,2.4c0.6,0.7,1.3,1.2,2.2,1.6
		c0.8,0.4,1.7,0.6,2.6,0.6c0.5,0,1,0,1.5-0.1c0.5-0.1,1-0.3,1.5-0.5c0.5-0.3,1-0.6,1.5-1.1c0.5-0.5,0.9-1.1,1.3-1.8h0.5
		c-0.1,0.3-0.2,0.6-0.3,0.9c-0.1,0.3-0.2,0.6-0.4,0.9c-0.1,0.3-0.3,0.6-0.4,0.9c-0.2,0.3-0.3,0.6-0.4,0.8c-0.4,0-0.7,0-1.1,0
		c-0.3,0.1-0.7,0.1-1.1,0.2c-0.4,0.1-0.9,0.2-1.4,0.3c-0.5,0.1-1.1,0.1-1.8,0.1c-1.2,0-2.3-0.2-3.4-0.6c-1-0.4-1.9-0.9-2.7-1.6
		c-0.7-0.7-1.3-1.5-1.7-2.4s-0.6-2-0.6-3.1c0-1.2,0.2-2.2,0.6-3.2c0.4-1,1-1.8,1.8-2.5c0.8-0.7,1.7-1.3,2.7-1.7
		c1.1-0.4,2.2-0.6,3.5-0.6c0.8,0,1.4,0.1,2,0.2c0.6,0.1,1,0.2,1.4,0.3c0.4,0.1,0.7,0.2,1,0.3c0.3,0.1,0.5,0.1,0.7,0.1
		c0.2,0,0.4,0,0.4-0.1h0.4l0.2,3.5H221.7"/>
	<path class="st0" d="M229.3,17.5v4.6c0,0.4,0,0.7,0.1,1c0,0.3,0.1,0.5,0.3,0.7c0.1,0.2,0.3,0.3,0.6,0.4c0.2,0.1,0.6,0.1,1,0.1h0.1
		v0.5h-6v-0.5h0.1c0.7,0,1.2-0.1,1.5-0.4c0.3-0.2,0.4-0.7,0.4-1.4V11.9c0-0.6-0.1-1.1-0.4-1.3c-0.2-0.2-0.7-0.4-1.4-0.4V9.7h5.7v0.5
		c-0.4,0-0.8,0-1,0.1s-0.5,0.2-0.6,0.4c-0.1,0.2-0.2,0.4-0.3,0.7c0,0.3-0.1,0.7-0.1,1.1v4.2h9.4v-4.7c0-0.6-0.1-1.1-0.4-1.4
		c-0.3-0.3-0.8-0.4-1.5-0.4h-0.5V9.7h6.2v0.5c-0.4,0-0.7,0.1-0.9,0.1c-0.2,0.1-0.4,0.2-0.6,0.3s-0.2,0.4-0.3,0.6
		c-0.1,0.2-0.1,0.6-0.1,0.9v10c0,0.4,0,0.8,0.1,1c0.1,0.3,0.2,0.5,0.3,0.6c0.2,0.2,0.3,0.3,0.6,0.3c0.2,0.1,0.5,0.1,0.9,0.1h0.2v0.5
		h-6.8v-0.5h0.7c0.8,0,1.3-0.1,1.5-0.4c0.2-0.3,0.4-0.7,0.4-1.4v-4.9H229.3"/>
	<path class="st0" d="M257.2,18l-1.4,3.8c-0.1,0.2-0.2,0.5-0.3,0.8s-0.2,0.5-0.2,0.7c0,0.3,0.2,0.5,0.5,0.7c0.3,0.1,0.8,0.2,1.5,0.2
		h0.4v0.5h-5.5v-0.5c0.4,0,0.7,0,0.9-0.1c0.2-0.1,0.5-0.2,0.6-0.3c0.2-0.2,0.3-0.4,0.5-0.7c0.1-0.3,0.3-0.7,0.5-1.2l4.4-11.9
		l-0.2-0.5h2.1l5,13.3c0.1,0.3,0.2,0.6,0.4,0.8c0.1,0.2,0.3,0.4,0.5,0.5c0.2,0.1,0.4,0.2,0.6,0.2c0.2,0,0.5,0.1,0.8,0.1v0.5h-6.6
		v-0.5h0.6c0.7,0,1.2-0.1,1.5-0.2c0.3-0.1,0.4-0.3,0.4-0.7c0-0.2,0-0.4-0.1-0.5c-0.1-0.2-0.1-0.3-0.2-0.4l-1.6-4.4H257.2
		 M259.6,11.4l-2,5.6h4.2L259.6,11.4z"/>
	<path class="st0" d="M285.4,24.8l-12.4-13v10.3c0,0.4,0,0.8,0.1,1.1c0.1,0.3,0.2,0.5,0.4,0.6s0.4,0.3,0.7,0.3
		c0.3,0.1,0.7,0.1,1.2,0.1v0.5h-5.6v-0.5h0.1c0.8,0,1.3-0.1,1.5-0.4c0.3-0.3,0.4-0.7,0.4-1.2V10.8c-0.5-0.4-1.2-0.6-2-0.6V9.7h3.8
		L285,21.5V12c0-0.4,0-0.7-0.1-0.9s-0.2-0.4-0.4-0.5c-0.2-0.1-0.4-0.2-0.7-0.3c-0.3,0-0.7-0.1-1.2-0.1V9.7h5.6v0.5
		c-0.4,0-0.8,0-1.1,0.1c-0.3,0-0.5,0.1-0.7,0.2c-0.2,0.1-0.3,0.2-0.3,0.4c-0.1,0.2-0.1,0.4-0.1,0.6v13.4H285.4"/>
	<path class="st0" d="M292.1,12.1c0-0.4,0-0.7-0.1-1s-0.2-0.5-0.3-0.6c-0.1-0.1-0.3-0.2-0.6-0.3c-0.2-0.1-0.5-0.1-0.9-0.1h-0.5V9.7
		c0.4,0,1-0.1,1.5-0.1c0.6,0,1.2,0,1.9-0.1s1.4-0.1,2.1-0.1c0.7,0,1.4,0,2,0c1.6,0,3,0.2,4.1,0.6s2.1,0.9,2.8,1.5
		c0.7,0.6,1.3,1.4,1.7,2.3c0.4,0.9,0.5,1.8,0.5,2.8c0,0.9-0.2,1.8-0.5,2.8s-0.9,1.8-1.6,2.6c-0.7,0.8-1.7,1.4-2.8,1.9
		c-1.1,0.5-2.4,0.7-3.9,0.7h-7.7v-0.5h0.4c0.7,0,1.1-0.1,1.4-0.3c0.3-0.2,0.5-0.7,0.5-1.4V12.1 M294.1,22.9c0,0.2,0,0.4,0,0.6
		c0,0.2,0.1,0.3,0.2,0.4c0.1,0.1,0.3,0.2,0.6,0.2c0.3,0,0.6,0.1,1.1,0.1c0.8,0,1.5,0,2.1-0.1c0.6-0.1,1.1-0.2,1.6-0.3
		c0.5-0.2,0.9-0.4,1.3-0.6c0.4-0.2,0.7-0.6,1.1-0.9c0.2-0.2,0.5-0.5,0.7-0.8c0.2-0.3,0.4-0.7,0.6-1.2c0.2-0.4,0.4-0.9,0.5-1.5
		c0.1-0.5,0.2-1.1,0.2-1.7c0-0.9-0.1-1.8-0.4-2.7c-0.3-0.9-0.8-1.7-1.5-2.4c-0.3-0.3-0.6-0.5-1-0.8c-0.4-0.2-0.8-0.4-1.3-0.6
		c-0.5-0.2-1.1-0.3-1.7-0.4c-0.6-0.1-1.4-0.1-2.2-0.1c-0.5,0-0.9,0-1.2,0c-0.3,0-0.6,0-0.7,0.1V22.9z"/>
	<path class="st0" d="M81.6,42.1c-0.5,1-1.1,1.9-1.8,2.6C79,45.5,78.1,46,77,46.4c-1,0.4-2.1,0.6-3.3,0.6c-1.2,0-2.3-0.2-3.3-0.5
		c-1-0.4-2-0.9-2.7-1.5c-0.8-0.7-1.4-1.5-1.9-2.4c-0.5-0.9-0.7-1.9-0.7-3.1c0-1.2,0.2-2.3,0.6-3.3c0.4-1,1-1.9,1.8-2.6
		c0.8-0.7,1.7-1.3,2.8-1.7c1.1-0.4,2.2-0.6,3.5-0.6c1.1,0,2.2,0.2,3.2,0.6c1,0.4,1.9,0.9,2.7,1.5c0.8,0.7,1.4,1.4,1.8,2.4
		c0.5,0.9,0.7,1.9,0.7,3C82.3,40,82.1,41.1,81.6,42.1 M79.5,36.5c-0.3-0.9-0.8-1.7-1.4-2.4c-0.6-0.7-1.3-1.2-2.1-1.6
		c-0.8-0.4-1.7-0.6-2.7-0.6c-1.1,0-2,0.2-2.7,0.7c-0.7,0.4-1.4,1-1.8,1.7c-0.5,0.7-0.8,1.4-1,2.2c-0.2,0.8-0.3,1.6-0.3,2.3
		c0,1.1,0.2,2.2,0.5,3.1s0.9,1.7,1.5,2.4c0.6,0.7,1.4,1.2,2.2,1.6c0.8,0.4,1.7,0.6,2.7,0.6c1,0,1.8-0.2,2.6-0.6
		c0.7-0.4,1.3-0.9,1.8-1.6c0.5-0.7,0.8-1.4,1.1-2.2c0.2-0.8,0.3-1.7,0.3-2.5C80,38.5,79.9,37.4,79.5,36.5z"/>
	<path class="st0" d="M88.2,44.3c0,0.7,0.1,1.1,0.4,1.4c0.3,0.3,0.8,0.4,1.5,0.4h0.8v0.5h-6.6v-0.5h0.3c0.6,0,1-0.1,1.3-0.3
		c0.2-0.2,0.3-0.6,0.3-1.1V33.5c0-0.4-0.1-0.8-0.3-1c-0.2-0.2-0.5-0.3-0.9-0.3h-1.2v-0.5c0.3,0,0.8,0,1.3-0.1c0.5,0,1.1-0.1,1.7-0.1
		c0.6,0,1.2-0.1,1.7-0.1c0.5,0,1,0,1.3,0c1.2,0,2.3,0.1,3.1,0.4c0.8,0.3,1.4,0.6,1.9,1c0.5,0.4,0.8,0.9,0.9,1.4
		c0.2,0.5,0.3,1,0.3,1.4c0,0.7-0.1,1.3-0.4,1.9c-0.3,0.6-0.7,1-1.2,1.4c-0.5,0.4-1.1,0.7-1.8,0.9c-0.7,0.2-1.5,0.3-2.4,0.3
		c-0.4,0-0.7,0-1,0c-0.3,0-0.7-0.1-1-0.2V44.3 M88.2,39.7c0.2,0,0.4,0.1,0.6,0.1c0.2,0,0.5,0.1,0.7,0.1c0.7,0,1.2-0.1,1.8-0.3
		s1-0.5,1.4-0.9c0.4-0.4,0.7-0.8,0.9-1.3c0.2-0.5,0.3-1.1,0.3-1.7c0-0.5-0.1-0.9-0.2-1.4c-0.1-0.4-0.3-0.8-0.6-1.2s-0.7-0.6-1.2-0.8
		c-0.5-0.2-1.2-0.3-2-0.3c-0.3,0-0.5,0-0.8,0c-0.3,0-0.6,0-0.8,0.1V39.7z"/>
	<path class="st0" d="M108.9,41.2h-0.5c0-0.4-0.1-0.8-0.2-1s-0.2-0.4-0.3-0.6c-0.1-0.1-0.3-0.2-0.5-0.3c-0.2,0-0.4-0.1-0.6-0.1h-4.1
		v5.2c0,0.6,0.1,0.9,0.3,1.1s0.5,0.2,1,0.2h3.7c0.4,0,0.8,0,1.1-0.1c0.3-0.1,0.5-0.2,0.7-0.4s0.4-0.5,0.5-0.8s0.3-0.8,0.4-1.3h0.4
		l-0.4,3.6H97.8v-0.5h0.7c0.5,0,0.9,0,1.2-0.1c0.3-0.1,0.5-0.2,0.7-0.3c0.2-0.2,0.3-0.4,0.3-0.6s0.1-0.6,0.1-0.9V34.1
		c0-0.7-0.1-1.2-0.4-1.5c-0.2-0.3-0.8-0.5-1.6-0.5h-0.5v-0.5h11.5l0.2,3.3h-0.4c-0.1-0.5-0.2-0.9-0.3-1.2s-0.2-0.6-0.4-0.8
		c-0.2-0.2-0.3-0.3-0.5-0.4s-0.4-0.1-0.6-0.1h-5.1v5.9h4.3c0.4,0,0.8-0.1,1-0.4c0.2-0.2,0.4-0.7,0.4-1.4h0.5V41.2"/>
	<path class="st0" d="M134.2,40l-1.4,3.8c-0.1,0.2-0.2,0.5-0.3,0.8c-0.1,0.3-0.2,0.5-0.2,0.7c0,0.3,0.2,0.5,0.5,0.7
		c0.3,0.1,0.8,0.2,1.5,0.2h0.4v0.5h-5.5v-0.5c0.4,0,0.7,0,0.9-0.1s0.5-0.2,0.6-0.3s0.3-0.4,0.5-0.7s0.3-0.7,0.5-1.2l4.4-11.9
		l-0.2-0.5h2.1l5,13.3c0.1,0.3,0.2,0.6,0.4,0.8c0.1,0.2,0.3,0.4,0.5,0.5s0.4,0.2,0.6,0.2c0.2,0,0.5,0.1,0.8,0.1v0.5h-6.6v-0.5h0.6
		c0.7,0,1.2-0.1,1.5-0.2c0.3-0.1,0.4-0.3,0.4-0.7c0-0.2,0-0.4-0.1-0.5c-0.1-0.2-0.1-0.3-0.2-0.4l-1.6-4.4H134.2 M136.6,33.4l-2,5.6
		h4.2L136.6,33.4z"/>
	<path class="st0" d="M152.4,44.4c0,0.7,0.1,1.1,0.4,1.4c0.3,0.3,0.8,0.4,1.5,0.4h0.9v0.5h-7.6v-0.5h0.9c0.7,0,1.2-0.1,1.5-0.4
		c0.3-0.3,0.4-0.7,0.4-1.4V32.6h-4.2c-0.2,0-0.4,0-0.6,0.1c-0.2,0.1-0.3,0.2-0.5,0.4c-0.1,0.2-0.3,0.5-0.4,0.8
		c-0.1,0.3-0.2,0.8-0.3,1.3h-0.4l0.4-3.9h0.5c0,0.1,0.1,0.2,0.3,0.3c0.1,0,0.3,0.1,0.5,0.1h11.5c0.2,0,0.3,0,0.5-0.1
		c0.1,0,0.2-0.1,0.3-0.3h0.5l0.4,3.9h-0.4c-0.1-0.5-0.2-1-0.3-1.3c-0.1-0.3-0.2-0.6-0.4-0.8s-0.3-0.3-0.5-0.4
		c-0.2-0.1-0.4-0.1-0.6-0.1h-4.2V44.4"/>
	<path class="st0" d="M166.3,46.7h-5.8v-0.5c0.4,0,0.7-0.1,0.9-0.1c0.2-0.1,0.4-0.2,0.6-0.3c0.1-0.2,0.2-0.4,0.3-0.6
		c0-0.3,0.1-0.6,0.1-1V33.9c0-0.7-0.1-1.1-0.4-1.3c-0.3-0.2-0.7-0.4-1.4-0.4v-0.5h5.8v0.5c-0.8,0-1.3,0.1-1.6,0.4
		c-0.3,0.2-0.5,0.8-0.5,1.6v10.2c0,0.4,0,0.6,0.1,0.9c0.1,0.2,0.2,0.4,0.3,0.6c0.2,0.2,0.4,0.3,0.6,0.3c0.3,0.1,0.6,0.1,1,0.1V46.7"
		/>
	<path class="st0" d="M185,42.1c-0.5,1-1.1,1.9-1.8,2.6c-0.8,0.7-1.7,1.3-2.7,1.7c-1,0.4-2.1,0.6-3.3,0.6c-1.2,0-2.3-0.2-3.3-0.5
		c-1-0.4-2-0.9-2.7-1.5c-0.8-0.7-1.4-1.5-1.9-2.4c-0.5-0.9-0.7-1.9-0.7-3.1c0-1.2,0.2-2.3,0.6-3.3c0.4-1,1-1.9,1.8-2.6
		c0.8-0.7,1.7-1.3,2.8-1.7c1.1-0.4,2.2-0.6,3.5-0.6c1.1,0,2.2,0.2,3.2,0.6c1,0.4,1.9,0.9,2.7,1.5c0.8,0.7,1.4,1.4,1.8,2.4
		c0.5,0.9,0.7,1.9,0.7,3C185.7,40,185.5,41.1,185,42.1 M183,36.5c-0.3-0.9-0.8-1.7-1.4-2.4c-0.6-0.7-1.3-1.2-2.1-1.6
		c-0.8-0.4-1.7-0.6-2.7-0.6c-1.1,0-2,0.2-2.7,0.7c-0.7,0.4-1.4,1-1.8,1.7c-0.5,0.7-0.8,1.4-1,2.2c-0.2,0.8-0.3,1.6-0.3,2.3
		c0,1.1,0.2,2.2,0.5,3.1s0.9,1.7,1.5,2.4c0.6,0.7,1.4,1.2,2.2,1.6c0.8,0.4,1.7,0.6,2.7,0.6c1,0,1.8-0.2,2.6-0.6
		c0.7-0.4,1.3-0.9,1.8-1.6c0.5-0.7,0.8-1.4,1.1-2.2c0.2-0.8,0.3-1.7,0.3-2.5C183.5,38.5,183.3,37.4,183,36.5z"/>
	<path class="st0" d="M203.1,46.8l-12.4-13v10.3c0,0.4,0,0.8,0.1,1.1c0.1,0.3,0.2,0.5,0.4,0.6c0.2,0.2,0.4,0.3,0.7,0.3
		c0.3,0.1,0.7,0.1,1.2,0.1v0.5h-5.6v-0.5h0.1c0.8,0,1.3-0.1,1.5-0.4c0.3-0.3,0.4-0.7,0.4-1.2V32.8c-0.5-0.4-1.2-0.6-2-0.6v-0.5h3.8
		l11.3,11.8V34c0-0.4,0-0.7-0.1-0.9c-0.1-0.2-0.2-0.4-0.4-0.5c-0.2-0.1-0.4-0.2-0.7-0.3c-0.3,0-0.7-0.1-1.2-0.1v-0.5h5.6v0.5
		c-0.4,0-0.8,0-1.1,0.1c-0.3,0-0.5,0.1-0.7,0.2c-0.2,0.1-0.3,0.2-0.3,0.4c-0.1,0.2-0.1,0.4-0.1,0.6v13.4H203.1"/>
	<path class="st0" d="M207.7,43c0.3,1.1,0.8,1.9,1.5,2.5c0.8,0.6,1.6,0.9,2.5,0.9c0.4,0,0.8-0.1,1.2-0.2c0.4-0.1,0.8-0.3,1.1-0.5
		c0.3-0.2,0.6-0.5,0.8-0.9c0.2-0.4,0.3-0.8,0.3-1.2c0-0.6-0.2-1.1-0.6-1.5c-0.4-0.5-0.9-0.9-1.4-1.3c-0.6-0.4-1.2-0.8-1.8-1.2
		c-0.7-0.4-1.3-0.8-1.8-1.3c-0.6-0.4-1-0.9-1.4-1.5c-0.4-0.5-0.6-1.2-0.6-1.9c0-0.5,0.1-1,0.3-1.4c0.2-0.4,0.5-0.8,0.9-1.1
		c0.4-0.3,0.8-0.6,1.4-0.7c0.5-0.2,1.1-0.3,1.7-0.3c0.5,0,0.9,0,1.2,0.1c0.3,0.1,0.6,0.1,0.8,0.2c0.2,0.1,0.4,0.1,0.6,0.2
		c0.2,0.1,0.4,0.1,0.6,0.1c0.2,0,0.3-0.1,0.4-0.2h0.4l0.4,3h-0.4c-0.3-0.9-0.9-1.6-1.6-2.1c-0.7-0.5-1.5-0.8-2.3-0.8
		c-0.8,0-1.4,0.2-1.9,0.6s-0.7,1-0.7,1.6c0,0.6,0.2,1.1,0.6,1.5c0.4,0.4,0.9,0.9,1.4,1.3c0.6,0.4,1.2,0.8,1.8,1.2s1.3,0.8,1.8,1.3
		c0.6,0.5,1,1,1.4,1.5c0.4,0.6,0.6,1.2,0.6,1.9c0,0.6-0.1,1.1-0.4,1.6c-0.2,0.5-0.6,0.9-1,1.3c-0.4,0.4-0.9,0.7-1.5,0.9
		c-0.6,0.2-1.3,0.3-2,0.3c-0.3,0-0.7,0-1-0.1c-0.4-0.1-0.7-0.1-1-0.2c-0.3-0.1-0.6-0.2-0.8-0.2c-0.2-0.1-0.4-0.1-0.5-0.1
		c-0.2,0-0.4,0.1-0.5,0.3h-0.4l-0.5-3.6H207.7"/>
	<path class="st0" d="M241.8,35.7c-0.4-1.1-1.1-2-2.1-2.7c-1-0.7-2.1-1-3.4-1c-1,0-1.9,0.2-2.7,0.5c-0.8,0.3-1.5,0.8-2,1.4
		c-0.6,0.6-1,1.4-1.3,2.2c-0.3,0.8-0.5,1.8-0.5,2.8c0,1.1,0.2,2.1,0.5,3s0.9,1.7,1.5,2.4c0.6,0.7,1.3,1.2,2.2,1.6
		c0.8,0.4,1.7,0.6,2.6,0.6c0.5,0,1,0,1.5-0.1c0.5-0.1,1-0.3,1.5-0.5c0.5-0.3,1-0.6,1.5-1.1s0.9-1.1,1.3-1.8h0.5
		c-0.1,0.3-0.2,0.6-0.3,0.9s-0.2,0.6-0.4,0.9c-0.1,0.3-0.3,0.6-0.4,0.9c-0.2,0.3-0.3,0.6-0.4,0.8c-0.4,0-0.7,0-1.1,0
		c-0.3,0.1-0.7,0.1-1.1,0.2c-0.4,0.1-0.9,0.2-1.4,0.3c-0.5,0.1-1.1,0.1-1.8,0.1c-1.2,0-2.3-0.2-3.4-0.6c-1-0.4-1.9-0.9-2.7-1.6
		c-0.7-0.7-1.3-1.5-1.7-2.4c-0.4-0.9-0.6-2-0.6-3.1c0-1.2,0.2-2.2,0.6-3.2c0.4-1,1-1.8,1.8-2.5c0.8-0.7,1.7-1.3,2.7-1.7
		c1.1-0.4,2.2-0.6,3.5-0.6c0.8,0,1.4,0.1,2,0.2s1,0.2,1.4,0.3c0.4,0.1,0.7,0.2,1,0.3c0.3,0.1,0.5,0.1,0.7,0.1c0.2,0,0.4,0,0.4-0.1
		h0.4l0.2,3.5H241.8"/>
	<path class="st0" d="M255.9,41.2h-0.5c0-0.4-0.1-0.8-0.2-1s-0.2-0.4-0.3-0.6c-0.1-0.1-0.3-0.2-0.5-0.3c-0.2,0-0.4-0.1-0.6-0.1h-4.1
		v5.2c0,0.6,0.1,0.9,0.3,1.1c0.2,0.2,0.5,0.2,1,0.2h3.7c0.4,0,0.8,0,1.1-0.1c0.3-0.1,0.5-0.2,0.7-0.4s0.4-0.5,0.5-0.8
		c0.2-0.4,0.3-0.8,0.4-1.3h0.4l-0.4,3.6h-12.7v-0.5h0.7c0.5,0,0.9,0,1.2-0.1c0.3-0.1,0.5-0.2,0.7-0.3c0.2-0.2,0.3-0.4,0.3-0.6
		c0.1-0.2,0.1-0.6,0.1-0.9V34.1c0-0.7-0.1-1.2-0.4-1.5c-0.2-0.3-0.8-0.5-1.6-0.5h-0.5v-0.5h11.5l0.2,3.3h-0.4
		c-0.1-0.5-0.2-0.9-0.3-1.2c-0.1-0.3-0.2-0.6-0.4-0.8c-0.2-0.2-0.3-0.3-0.5-0.4c-0.2-0.1-0.4-0.1-0.6-0.1h-5.1v5.9h4.3
		c0.4,0,0.8-0.1,1-0.4c0.2-0.2,0.4-0.7,0.4-1.4h0.5V41.2"/>
	<path class="st0" d="M276.1,46.8l-12.4-13v10.3c0,0.4,0,0.8,0.1,1.1c0.1,0.3,0.2,0.5,0.4,0.6s0.4,0.3,0.7,0.3s0.7,0.1,1.2,0.1v0.5
		h-5.6v-0.5h0.1c0.8,0,1.3-0.1,1.5-0.4s0.4-0.7,0.4-1.2V32.8c-0.5-0.4-1.2-0.6-2-0.6v-0.5h3.8l11.3,11.8V34c0-0.4,0-0.7-0.1-0.9
		c-0.1-0.2-0.2-0.4-0.4-0.5s-0.4-0.2-0.7-0.3c-0.3,0-0.7-0.1-1.2-0.1v-0.5h5.6v0.5c-0.4,0-0.8,0-1.1,0.1c-0.3,0-0.5,0.1-0.7,0.2
		c-0.2,0.1-0.3,0.2-0.3,0.4c-0.1,0.2-0.1,0.4-0.1,0.6v13.4H276.1"/>
	<path class="st0" d="M289.3,44.4c0,0.7,0.1,1.1,0.4,1.4s0.8,0.4,1.5,0.4h0.9v0.5h-7.6v-0.5h0.9c0.7,0,1.2-0.1,1.5-0.4
		c0.3-0.3,0.4-0.7,0.4-1.4V32.6h-4.2c-0.2,0-0.4,0-0.6,0.1c-0.2,0.1-0.3,0.2-0.5,0.4c-0.1,0.2-0.3,0.5-0.4,0.8
		c-0.1,0.3-0.2,0.8-0.3,1.3H281l0.4-3.9h0.5c0,0.1,0.1,0.2,0.3,0.3c0.1,0,0.3,0.1,0.5,0.1h11.5c0.2,0,0.3,0,0.5-0.1
		c0.1,0,0.2-0.1,0.3-0.3h0.5l0.4,3.9h-0.4c-0.1-0.5-0.2-1-0.3-1.3c-0.1-0.3-0.2-0.6-0.4-0.8c-0.1-0.2-0.3-0.3-0.5-0.4
		c-0.2-0.1-0.4-0.1-0.6-0.1h-4.2V44.4"/>
	<path class="st0" d="M308.4,41.2H308c0-0.4-0.1-0.8-0.2-1c-0.1-0.2-0.2-0.4-0.3-0.6c-0.1-0.1-0.3-0.2-0.5-0.3
		c-0.2,0-0.4-0.1-0.6-0.1h-4.1v5.2c0,0.6,0.1,0.9,0.3,1.1c0.2,0.2,0.5,0.2,1,0.2h3.7c0.4,0,0.8,0,1.1-0.1c0.3-0.1,0.5-0.2,0.7-0.4
		c0.2-0.2,0.4-0.5,0.5-0.8c0.2-0.4,0.3-0.8,0.4-1.3h0.4l-0.4,3.6h-12.7v-0.5h0.7c0.5,0,0.9,0,1.2-0.1c0.3-0.1,0.5-0.2,0.7-0.3
		c0.2-0.2,0.3-0.4,0.3-0.6c0.1-0.2,0.1-0.6,0.1-0.9V34.1c0-0.7-0.1-1.2-0.4-1.5c-0.2-0.3-0.8-0.5-1.6-0.5h-0.5v-0.5h11.5l0.2,3.3
		h-0.4c-0.1-0.5-0.2-0.9-0.3-1.2c-0.1-0.3-0.2-0.6-0.4-0.8c-0.2-0.2-0.3-0.3-0.5-0.4c-0.2-0.1-0.4-0.1-0.6-0.1h-5.1v5.9h4.3
		c0.4,0,0.8-0.1,1-0.4c0.2-0.2,0.4-0.7,0.4-1.4h0.5V41.2"/>
	<g>
		<defs>
			<path id="SVGID_1_" d="M36.3,15.6L36.3,15.6c-2.4-3.7-4.3-5-6.7-6c-0.4-0.1-1.3-0.5-1.9-0.7c0.5,0,1,0,1.5,0.1
				c0.3,0.1,0.5,0.2,0.6,0.2c0.1,0,0.2,0.1,0.3,0.2l0,0c0.2,0,0.4,0.1,0.7,0.1c0.3,0.1,0.8,0.3,1.2,0.5c0.4,0.2,1.1,0.7,1.1,0.9
				c-0.1,0-0.1,0.1-0.1,0.1c-0.1,0-0.1,0-0.3-0.1c1.1,0.8,2.7,2.3,3.7,3.4c0.6-0.1,1.6-0.3,2.1-0.4c0,0,0,0,0,0c0,0,0,0,0,0h0
				c-0.1,0-1.5-1.1-1.8-1.7l0-0.1l0.1-0.1l0.1-0.1c0.1,0,0.1-0.1,0.3-0.1c0.2,0,0.4,0.1,0.8,0.2c0.9,0.6,1.8,1.3,2.6,2.1
				c-0.3,0.6-2.5,1.2-3.5,1.4C36.7,15.5,36.5,15.5,36.3,15.6L36.3,15.6L36.3,15.6L36.3,15.6L36.3,15.6L36.3,15.6L36.3,15.6
				 M40.3,29.1c1.4-0.4,1.7-2.5,0.9-3.9c0.1,0,0.3,0.1,0.4,0.1c0.7,0,1-0.8,1-1.7c-0.1-1.4-1-2.9-1.9-2.9c-0.2,0-0.4,0.1-0.6,0.3
				c-0.5-1.5-1.3-3.1-2.1-4.4l0.3-0.1c0.7-0.1,1.5-0.5,2-0.6c0.2,0.4,0.5,1.3,1.5,1.7l0.1,0c0.1,0,0.2,0.1,0.3,0.1
				c0.2,0,0.3-0.1,0.3-0.4c0-0.1,0-0.4-0.1-0.6c-0.1-0.2-0.1-0.3-0.2-0.5c-0.2-0.4-0.5-0.8-0.7-1.1c2.9,3.2,4.7,7.5,4.7,12.2
				c-0.1,0.1-0.3,0.3-0.6,0.4l0,0c-0.5,0.3-1.2,0.5-2,0.7C42.6,28.7,41.5,28.9,40.3,29.1 M40.2,29.1c-0.1,0-0.1,0-0.2,0
				c-1-0.1-1.8-1.8-1.4-3.5c-0.2,0.2-0.5,0.2-0.8,0.2c-1.1,0-2.1-1.6-2-3.1c0.1-0.8,0.5-1.5,1.3-1.5c0.2,0,0.3,0,0.5,0.1
				c-0.4-1.5-1-3-1.7-4.3c-1,0.1-2,0.2-3.2,0.3c0.9,1.4,0.1,2.7-1.1,2.7c-0.1,0-0.2,0-0.3,0c-1-0.2-2-1.2-1.7-2.5
				c-0.3,0.2-0.6,0.3-1,0.3c-0.8,0-1.6-0.5-1.7-1.7c0,3-0.1,6.8-0.1,10.7c0-2.3,0-5.5,0-8.6c0-0.7,0-1.4,0-2.1
				c0-3.2,0.1-6.5,0.2-7.3c0,0,0,0,0.1,0c0,0,0,0,0.1,0c0.4,0.6,1.2,0.9,1.4,0.9c-0.1,0.2,0,0.7,0.8,1.3c0.1,0.1,0.2,0.2,0.4,0.2
				c0.4,0.2,0.8,0.3,1,0.3c0.4,0,0.5-0.2,0.6-0.4l0,0c0.4,0.3,1.1,0.9,1.9,1.8c0.5,0.6,0.9,1,1.2,1.5c-0.8,0.1-1.8,0.2-2.7,0.3
				c-0.1-1.2-0.9-1.8-1.5-2c-0.2-0.1-0.3-0.1-0.4-0.1c-0.9,0-1.1,1.2-0.6,2c-0.2-0.1-0.5-0.2-0.8-0.2c-0.7,0-1.3,0.5-1.5,1.6
				c3.7,0,6.3-0.2,9.1-0.6c3,4.9,3.8,9,4,13.6C40.3,29.1,40.2,29.1,40.2,29.1 M38.2,29.4c0.4,0,0.8-0.1,1.1-0.1
				C39,29.3,38.6,29.3,38.2,29.4 M22.5,29.8c0,0-0.1,0-0.1,0C22.4,29.8,22.4,29.8,22.5,29.8 M22.6,29.8
				C22.6,29.8,22.6,29.8,22.6,29.8C22.6,29.8,22.6,29.8,22.6,29.8 M22.9,29.9c0,0-0.1,0-0.1,0C22.8,29.9,22.9,29.9,22.9,29.9
				 M31.1,29.9c1.6-0.1,3.1-0.2,4.5-0.3c-1.4,0.1-2.5,0.2-3.7,0.2C31.6,29.9,31.4,29.9,31.1,29.9 M27.1,30c0-0.2,0-0.5,0-0.9
				C27.1,29.3,27.1,29.7,27.1,30 M27,30C27.1,30,27.1,30,27,30C27.1,30,27.1,30,27,30 M27,30c-1.2,0-2.4,0-3.6-0.1
				C24.6,29.9,25.8,30,27,30 M27,30L27,30 M15.7,40.4c-0.8-0.2-1.5-0.3-2-0.5c0,0-1.3-2.3-2.2-2.6l0,0c-1.7-2.8-2.7-6.1-2.7-9.7
				c0-0.1,0-0.1,0-0.2c0.1,0.1,0.2,0.2,0.4,0.3c0.4,0.2,1,0.5,1.8,0.7c1,0.2,2,0.4,2.9,0.6l0,0c0,0,0,0,0,0c-1.4,0-1.6,2.1-1,3.5
				c-0.3-0.2-0.5-0.3-0.6-0.3c-0.3,0-0.5,0.3-0.6,0.5c-0.4,1.2,0.8,3.9,1.9,3.9c0.1,0,0.2,0,0.3-0.1C14.2,37.9,14.9,39.2,15.7,40.4
				 M27.4,46.3c-1.1,0-2.2-0.1-3.2-0.3c-0.5-0.2-1-0.4-1.6-0.6c-0.4-0.1-0.6-0.2-0.7-0.2c-0.1,0-0.1,0-0.1,0c-1-0.6-1.8-1.3-2.6-2.2
				c0.8,0.1,1.8,0.2,2.8,0.3c0.1,0.7,1.1,1.3,1.9,1.5c0.1,0,0.2,0,0.3,0c0.8,0,1.2-0.6,0.6-1.3c0.3,0.1,0.7,0.2,0.9,0.2
				c0.8,0,1.3-0.5,1.4-0.9l0-0.3c-4.1,0-6.9-0.2-9.8-0.7c1.5,1.9,2.9,3,4.2,3.6c-2.7-0.9-5.2-2.4-7.2-4.3c0.6,0.3,1.5,0.5,3,0.8
				c-3-4.2-3.6-8.2-3.6-12.8c1.5,0.5,1.9,2.7,1.5,3.9c0.1-0.1,0.3-0.1,0.4-0.1c1.3,0,2.7,2.1,2.1,3.6c-0.2,0.5-0.6,0.7-1,0.7
				c-0.2,0-0.5-0.1-0.8-0.2c0.4,1.4,1,2.7,1.6,3.8c1,0.1,2.1,0.3,3.3,0.3c-0.9-1.2-0.2-2.1,1-2.1c0,0,0.1,0,0.1,0
				c1.1,0.1,2.6,1,2.3,2.3c0.3-0.1,0.6-0.2,0.9-0.2c0.9,0,1.8,0.5,2,1.4c0-0.2,0-0.4,0-0.7C27.2,43.1,27.3,44.2,27.4,46.3"/>
		</defs>
		<clipPath id="SVGID_00000031913618254425664150000004832970093972442026_">
			<use xlink:href="#SVGID_1_"  style="overflow:visible;"/>
		</clipPath>
		
			<radialGradient id="SVGID_00000003100525329613354100000005480139808858401417_" cx="-3.181448e-05" cy="55" r="1" gradientTransform="matrix(18.9449 0 0 -18.9449 27.3941 1069.5398)" gradientUnits="userSpaceOnUse">
			<stop  offset="0" style="stop-color:#FFFFFF"/>
			<stop  offset="0.5148" style="stop-color:#FCFCFC"/>
			<stop  offset="0.7003" style="stop-color:#F5F5F5"/>
			<stop  offset="0.8325" style="stop-color:#EBEBEC"/>
			<stop  offset="0.9387" style="stop-color:#DDDEDF"/>
			<stop  offset="1" style="stop-color:#D1D3D4"/>
		</radialGradient>
		
			<rect x="8.7" y="8.9" style="clip-path:url(#SVGID_00000031913618254425664150000004832970093972442026_);fill:url(#SVGID_00000003100525329613354100000005480139808858401417_);" width="37.4" height="37.4"/>
	</g>
	<path class="st2" d="M27.4,46.5C16.9,46.5,8.4,38,8.4,27.6S16.9,8.6,27.4,8.6c10.4,0,18.9,8.5,18.9,18.9S37.8,46.5,27.4,46.5
		 M27.4,8.9c-10.3,0-18.7,8.4-18.7,18.7c0,10.3,8.4,18.7,18.7,18.7s18.7-8.4,18.7-18.7C46.1,17.3,37.7,8.9,27.4,8.9"/>
	<g>
		<defs>
			<path id="SVGID_00000169554514976743027470000002431343831814180777_" d="M31.9,29.9L31.9,29.9c1.3-0.1,2.3-0.1,3.7-0.2h0
				C34.2,29.7,33.2,29.8,31.9,29.9 M27.4,46.3C27.4,46.3,27.4,46.3,27.4,46.3c-0.1-2.1-0.2-3.1-0.2-4.5c0-1.9-0.1-4.3-0.1-7
				c3,2.9,3,2.9,4.3,4.1c0.3-2.4,0.5-5.2,0.5-8.4c0-0.2,0-0.4,0-0.6c2.6,2.7,3.1,3.3,4.2,4.6c0.2-1.3,0.2-2.7,0.2-4.2
				c0-0.2,0-0.4,0-0.6c0.7-0.1,1.3-0.1,1.9-0.2c0.4,0,0.8-0.1,1.1-0.1c0.4,0,0.7-0.1,0.9-0.1c0,0.2,0,0.4,0,0.6
				c0,3.2-0.5,6.1-1.5,8.6c0.6,1.4,0.6,2,0.3,3.1c2.7-3.1,4.4-7.4,4.4-12.4c0-0.2,0-0.4,0-0.6c-0.9,0.2-2,0.4-3.2,0.6
				c1.2-0.2,2.3-0.4,3.2-0.6c0.9-0.2,1.5-0.5,2-0.7l0,0c0.2-0.1,0.4-0.3,0.6-0.4c0,0.1,0,0.2,0,0.3C46.1,37.9,37.7,46.3,27.4,46.3"
				/>
		</defs>
		<clipPath id="SVGID_00000149343125592036846360000012238039437959206324_">
			<use xlink:href="#SVGID_00000169554514976743027470000002431343831814180777_"  style="overflow:visible;"/>
		</clipPath>
		
			<radialGradient id="SVGID_00000083052986040582696560000011402128272595619479_" cx="0" cy="55" r="1" gradientTransform="matrix(18.9449 0 0 -18.9449 27.3941 1069.5398)" gradientUnits="userSpaceOnUse">
			<stop  offset="0" style="stop-color:#FFD200"/>
			<stop  offset="0.5126" style="stop-color:#FFD000"/>
			<stop  offset="0.6988" style="stop-color:#F7CA00"/>
			<stop  offset="0.8317" style="stop-color:#EDC203"/>
			<stop  offset="0.9387" style="stop-color:#DFB705"/>
			<stop  offset="1" style="stop-color:#D3AE06"/>
		</radialGradient>
		
			<rect x="27.1" y="27.3" style="clip-path:url(#SVGID_00000149343125592036846360000012238039437959206324_);fill:url(#SVGID_00000083052986040582696560000011402128272595619479_);" width="19" height="19"/>
	</g>
	<path class="st4" d="M27.4,46.4c0,0,0-0.1,0-0.1c0,0,0,0,0,0c10.3,0,18.7-8.4,18.7-18.7c0-0.1,0-0.2,0-0.3c0.1-0.1,0.1-0.1,0.1-0.2
		c0,0.1,0,0.4,0,0.4C46.2,38,37.8,46.4,27.4,46.4"/>
	<path d="M27.1,30.6c0,1.5,0,2.9,0,4.2c3,2.9,3,2.9,4.3,4.1c0.3-2.4,0.5-5.2,0.5-8.4c0-0.2,0-0.4,0-0.6C30,29.9,28.8,30,27.1,30
		C27.1,30.2,27.1,30.4,27.1,30.6"/>
	<path d="M34,42.1c-0.7-1.1-1.3-1.8-2.6-3.2c-0.6,4.6-1.8,7.4-3.2,7.5c0.1,0,0.3,0,0.4,0c0.1,0,0.3,0,0.5,0
		C31.1,46.1,32.7,44.6,34,42.1"/>
	<path d="M36.1,34.4c0,0-1.1,5.7-2.1,7.7c0.6,1.1,0.6,1.6,0.4,2.3c1.8-1.4,3.3-3.5,4.4-6.1C38.1,37,37.7,36.3,36.1,34.4"/>
	<path d="M30.7,46.1c0.4-0.1,0.4-0.1,1.1-0.2l0.5-0.1c1.4-0.4,1.6-0.6,2.1-1.3c-1.2,0.9-2.6,1.5-4,1.7L30.7,46.1"/>
	<path d="M39.1,41.5c2.7-3.1,4.4-7.4,4.4-12.4c0-0.2,0-0.4,0-0.6c-0.9,0.2-2,0.4-3.2,0.6c0,0.2,0,0.4,0,0.6c0,3.2-0.5,6.1-1.5,8.6
		C39.4,39.8,39.4,40.4,39.1,41.5"/>
	<path d="M36.4,29.6c-1.8,0.2-3,0.2-4.4,0.3c2.6,2.7,3.1,3.3,4.2,4.6c0.2-1.3,0.2-2.7,0.2-4.2C36.4,30,36.4,29.8,36.4,29.6"/>
	<path d="M23.3,9.7c1-0.4,2.1-0.9,4.1-1C26,8.9,24.5,9.3,23.3,9.7"/>
	<g>
		<defs>
			<path id="SVGID_00000164487631437651868060000009561847540535847310_" d="M27.2,30C27.2,30,27.1,30,27.2,30
				c-0.1-0.3-0.1-0.6-0.1-0.9c0-0.5,0-1.3,0-2.1c0-4,0-7.7,0.1-10.7c0.1,1.2,0.9,1.7,1.7,1.7c0.4,0,0.7-0.1,1-0.3
				c-0.3,1.3,0.7,2.3,1.7,2.5c0.1,0,0.2,0,0.3,0c1.2,0,2-1.3,1.1-2.7c1.1-0.1,2.2-0.2,3.2-0.3c0.7,1.3,1.2,2.8,1.7,4.3
				c-0.2-0.1-0.4-0.1-0.5-0.1c-0.8,0-1.2,0.7-1.3,1.5c-0.2,1.5,0.8,3.1,2,3.1c0.2,0,0.5-0.1,0.8-0.2C38.2,27.3,39,29,40,29.1
				c0,0,0.1,0,0.2,0c0.1,0,0.1,0,0.2,0c-0.3,0-0.6,0.1-0.9,0.1c-0.3,0-0.7,0.1-1.1,0.1c-0.6,0.1-1.2,0.1-1.9,0.2
				c-0.3,0-0.5,0-0.7,0.1c-1.4,0.1-2.9,0.2-4.5,0.3c-0.2,0-0.4,0-0.5,0C29.5,29.9,28.4,30,27.2,30"/>
		</defs>
		<clipPath id="SVGID_00000016071993651526849290000016688618089392491653_">
			<use xlink:href="#SVGID_00000164487631437651868060000009561847540535847310_"  style="overflow:visible;"/>
		</clipPath>
		
			<radialGradient id="SVGID_00000100372866465562786710000009889058511878718620_" cx="0" cy="55" r="1" gradientTransform="matrix(18.9449 0 0 -18.9449 27.3941 1069.5398)" gradientUnits="userSpaceOnUse">
			<stop  offset="0" style="stop-color:#E31933"/>
			<stop  offset="0.5153" style="stop-color:#E21933"/>
			<stop  offset="0.7035" style="stop-color:#DC1832"/>
			<stop  offset="0.838" style="stop-color:#D3162F"/>
			<stop  offset="0.9463" style="stop-color:#C7142C"/>
			<stop  offset="1" style="stop-color:#BE1229"/>
		</radialGradient>
		
			<rect x="27.1" y="16.1" style="clip-path:url(#SVGID_00000016071993651526849290000016688618089392491653_);fill:url(#SVGID_00000100372866465562786710000009889058511878718620_);" width="13.2" height="13.8"/>
	</g>
	<g>
		<defs>
			<path id="SVGID_00000040576365330139135470000013330188791614632630_" d="M39.4,29.2c0.3,0,0.6-0.1,0.9-0.1
				C40,29.2,39.7,29.2,39.4,29.2 M35.6,29.6c0.2,0,0.5,0,0.7-0.1c0.6-0.1,1.3-0.1,1.9-0.2c-0.6,0.1-1.2,0.1-1.9,0.2c0,0,0,0,0,0
				C36.1,29.6,35.9,29.6,35.6,29.6L35.6,29.6 M27.2,30c0,0-0.1,0-0.1,0C27.1,30,27.2,30,27.2,30c1.1,0,2.2,0,3.4,0
				C29.4,29.9,28.4,30,27.2,30"/>
		</defs>
		<clipPath id="SVGID_00000005230456740551460910000007574080518648661638_">
			<use xlink:href="#SVGID_00000040576365330139135470000013330188791614632630_"  style="overflow:visible;"/>
		</clipPath>
		
			<radialGradient id="SVGID_00000085940244364461529400000004783172652884429980_" cx="0" cy="55" r="1" gradientTransform="matrix(18.9449 0 0 -18.9449 27.3941 1069.5398)" gradientUnits="userSpaceOnUse">
			<stop  offset="0" style="stop-color:#E31B23"/>
			<stop  offset="0.5153" style="stop-color:#E11B22"/>
			<stop  offset="0.7035" style="stop-color:#DC1A21"/>
			<stop  offset="0.838" style="stop-color:#D31920"/>
			<stop  offset="0.9463" style="stop-color:#C7161D"/>
			<stop  offset="1" style="stop-color:#BE141B"/>
		</radialGradient>
		
			<rect x="27.1" y="29.1" style="clip-path:url(#SVGID_00000005230456740551460910000007574080518648661638_);fill:url(#SVGID_00000085940244364461529400000004783172652884429980_);" width="13.2" height="0.9"/>
	</g>
	<path d="M27.8,30c-0.2,0-0.4,0-0.7,0c0,0,0.1,0,0.1,0c1.2,0,2.2,0,3.4,0c0.2,0,0.4,0,0.5,0C30,29.9,28.9,30,27.8,30"/>
	<path d="M35.6,29.6c0.2,0,0.5,0,0.7-0.1c0,0,0,0,0,0C36.1,29.6,35.9,29.6,35.6,29.6"/>
	<g>
		<defs>
			<path id="SVGID_00000094590633637020623230000014318960740995081644_" d="M27.2,42.4c-0.1-1-1.1-1.4-2-1.4
				c-0.3,0-0.7,0.1-0.9,0.2c0.3-1.3-1.2-2.2-2.3-2.3c0,0-0.1,0-0.1,0c-1.2,0-1.9,1-1,2.1c-1.2-0.1-2.3-0.2-3.3-0.3
				c-0.6-1.1-1.2-2.4-1.6-3.8c0.3,0.2,0.5,0.2,0.8,0.2c0.4,0,0.8-0.3,1-0.7c0.6-1.5-0.8-3.6-2.1-3.6c-0.1,0-0.3,0-0.4,0.1
				c0.4-1.2,0-3.4-1.5-3.9c2.8,0.5,5.2,0.7,8.6,0.8c0,0,0.1,0,0.1,0c0,0,0.1,0,0.1,0c0,0,0,0,0.1,0c0,0,0.1,0,0.1,0c0,0,0.1,0,0.1,0
				c0.2,0,0.3,0,0.5,0c1.2,0,2.4,0.1,3.6,0.1c0,0,0,0,0,0c0,0,0,0,0.1,0c0,0,0,0,0.1,0c0,0.2,0,0.4,0,0.6c0,1.5,0,2.9,0,4.2
				c0,3.7,0,5.5,0.1,7C27.2,42,27.2,42.2,27.2,42.4"/>
		</defs>
		<clipPath id="SVGID_00000134210272681170756840000005415997801911115907_">
			<use xlink:href="#SVGID_00000094590633637020623230000014318960740995081644_"  style="overflow:visible;"/>
		</clipPath>
		
			<radialGradient id="SVGID_00000105400722113079471220000018323214684401135009_" cx="0" cy="55" r="1" gradientTransform="matrix(18.9449 0 0 -18.9449 27.3941 1069.5398)" gradientUnits="userSpaceOnUse">
			<stop  offset="0" style="stop-color:#E31933"/>
			<stop  offset="0.5153" style="stop-color:#E21933"/>
			<stop  offset="0.7035" style="stop-color:#DC1832"/>
			<stop  offset="0.838" style="stop-color:#D3162F"/>
			<stop  offset="0.9463" style="stop-color:#C7142C"/>
			<stop  offset="1" style="stop-color:#BE1229"/>
		</radialGradient>
		
			<rect x="13.8" y="29" style="clip-path:url(#SVGID_00000134210272681170756840000005415997801911115907_);fill:url(#SVGID_00000105400722113079471220000018323214684401135009_);" width="13.5" height="13.4"/>
	</g>
	<g>
		<defs>
			<path id="SVGID_00000081632637858890699940000001718141728160132008_" d="M27.2,41.8c0-1.5,0-3.3-0.1-7c0,0,0,0,0,0
				C27.1,37.5,27.2,39.9,27.2,41.8"/>
		</defs>
		<clipPath id="SVGID_00000170244725257056979900000017085015410374201989_">
			<use xlink:href="#SVGID_00000081632637858890699940000001718141728160132008_"  style="overflow:visible;"/>
		</clipPath>
		
			<radialGradient id="SVGID_00000016057652110140326100000000255556907377680804_" cx="0" cy="55" r="1" gradientTransform="matrix(18.9449 0 0 -18.9449 27.3941 1069.5398)" gradientUnits="userSpaceOnUse">
			<stop  offset="0" style="stop-color:#E31B23"/>
			<stop  offset="0.5153" style="stop-color:#E11B22"/>
			<stop  offset="0.7035" style="stop-color:#DC1A21"/>
			<stop  offset="0.838" style="stop-color:#D31920"/>
			<stop  offset="0.9463" style="stop-color:#C7161D"/>
			<stop  offset="1" style="stop-color:#BE141B"/>
		</radialGradient>
		
			<rect x="27.1" y="34.8" style="clip-path:url(#SVGID_00000170244725257056979900000017085015410374201989_);fill:url(#SVGID_00000016057652110140326100000000255556907377680804_);" width="0.1" height="7"/>
	</g>
	<path d="M27.1,34.8C27.1,34.8,27.1,34.8,27.1,34.8c0-1.3,0-2.7,0-4.2c0-0.2,0-0.4,0-0.6c0,0.2,0,0.4,0,0.6
		C27.1,32.1,27.1,33.5,27.1,34.8"/>
	<g>
		<defs>
			<path id="SVGID_00000081629447459048597100000009829183969934338435_" d="M40.3,29.1c-0.2-4.6-1-8.6-4-13.6l0,0l0,0l0,0l0,0
				c0.2,0,0.4-0.1,0.5-0.1c1-0.2,3.2-0.7,3.5-1.4c0.4,0.3,0.7,0.7,1,1.1c0.2,0.3,0.5,0.7,0.7,1.1c0.1,0.1,0.1,0.3,0.2,0.5
				c0.1,0.2,0.1,0.5,0.1,0.6c0,0.3-0.1,0.4-0.3,0.4c-0.1,0-0.2,0-0.3-0.1l-0.1,0c-1-0.4-1.3-1.3-1.5-1.7c-0.5,0.2-1.3,0.5-2,0.6
				L38,16.7c0.8,1.3,1.6,2.9,2.1,4.4c0.2-0.2,0.4-0.3,0.6-0.3c0.9,0,1.8,1.4,1.9,2.9c0,0.9-0.3,1.7-1,1.7c-0.1,0-0.2,0-0.4-0.1
				C42,26.6,41.7,28.7,40.3,29.1"/>
		</defs>
		<clipPath id="SVGID_00000169557822961597228940000017520679899461448604_">
			<use xlink:href="#SVGID_00000081629447459048597100000009829183969934338435_"  style="overflow:visible;"/>
		</clipPath>
		
			<radialGradient id="SVGID_00000098919416538354448270000011986059010594928541_" cx="0" cy="55" r="1" gradientTransform="matrix(18.9449 0 0 -18.9449 27.3941 1069.5398)" gradientUnits="userSpaceOnUse">
			<stop  offset="0" style="stop-color:#E31933"/>
			<stop  offset="0.5153" style="stop-color:#E21933"/>
			<stop  offset="0.7035" style="stop-color:#DC1832"/>
			<stop  offset="0.838" style="stop-color:#D3162F"/>
			<stop  offset="0.9463" style="stop-color:#C7142C"/>
			<stop  offset="1" style="stop-color:#BE1229"/>
		</radialGradient>
		
			<rect x="36.3" y="14.1" style="clip-path:url(#SVGID_00000169557822961597228940000017520679899461448604_);fill:url(#SVGID_00000098919416538354448270000011986059010594928541_);" width="6.3" height="15"/>
	</g>
	<path class="st10" d="M41.4,15.2c-0.3-0.4-0.7-0.7-1-1.1c0,0,0-0.1,0-0.1C40.4,14,40.8,14.4,41.4,15.2"/>
	<g>
		<defs>
			<path id="SVGID_00000106863750877741727930000004176763339388957313_" d="M27.2,16.1c0.1-1.1,0.8-1.6,1.5-1.6
				c0.2,0,0.5,0.1,0.8,0.2c-0.4-0.9-0.2-2,0.6-2c0.1,0,0.3,0,0.4,0.1c0.5,0.2,1.4,0.8,1.5,2c1-0.1,2-0.2,2.7-0.3
				c-0.3-0.5-0.8-1-1.2-1.5c-0.8-0.9-1.5-1.5-1.9-1.8l0,0c0,0.1-0.2,0.4-0.6,0.4c-0.2,0-0.5-0.1-1-0.3c-0.1-0.1-0.2-0.1-0.4-0.2
				c-0.8-0.6-0.8-1-0.8-1.3c-0.2-0.1-0.9-0.4-1.4-0.9c0.1,0,0.2,0,0.3,0c0.5,0.2,1.5,0.6,1.9,0.7c2.4,1,4.3,2.3,6.7,6
				C33.5,16,30.9,16.1,27.2,16.1"/>
		</defs>
		<clipPath id="SVGID_00000070802685483433455360000002024696250077221781_">
			<use xlink:href="#SVGID_00000106863750877741727930000004176763339388957313_"  style="overflow:visible;"/>
		</clipPath>
		
			<radialGradient id="SVGID_00000161605441737978059120000001260052409970057344_" cx="0" cy="55" r="1" gradientTransform="matrix(18.9449 0 0 -18.9449 27.3941 1069.5398)" gradientUnits="userSpaceOnUse">
			<stop  offset="0" style="stop-color:#E31933"/>
			<stop  offset="0.5153" style="stop-color:#E21933"/>
			<stop  offset="0.7035" style="stop-color:#DC1832"/>
			<stop  offset="0.838" style="stop-color:#D3162F"/>
			<stop  offset="0.9463" style="stop-color:#C7142C"/>
			<stop  offset="1" style="stop-color:#BE1229"/>
		</radialGradient>
		
			<rect x="27.2" y="8.9" style="clip-path:url(#SVGID_00000070802685483433455360000002024696250077221781_);fill:url(#SVGID_00000161605441737978059120000001260052409970057344_);" width="9.1" height="7.3"/>
	</g>
	<path class="st10" d="M27.7,8.9c-0.1,0-0.2,0-0.3,0c0,0-0.1-0.1-0.1-0.1l0,0C27.4,8.8,27.5,8.8,27.7,8.9"/>
	<g>
		<defs>
			<polyline id="SVGID_00000065789788821235703940000010849391409341494450_" points="36.3,15.6 36.3,15.6 36.3,15.6 			"/>
		</defs>
		<clipPath id="SVGID_00000003791084919517579550000016928947237065991083_">
			<use xlink:href="#SVGID_00000065789788821235703940000010849391409341494450_"  style="overflow:visible;"/>
		</clipPath>
		
			<radialGradient id="SVGID_00000045615851801695485280000005392578799372834746_" cx="0.4696" cy="55.6344" r="1.872313e-05" gradientTransform="matrix(18.9449 0 0 -18.9449 27.3941 1069.5398)" gradientUnits="userSpaceOnUse">
			<stop  offset="0" style="stop-color:#E31933"/>
			<stop  offset="0.5153" style="stop-color:#E21933"/>
			<stop  offset="0.7035" style="stop-color:#DC1832"/>
			<stop  offset="0.838" style="stop-color:#D3162F"/>
			<stop  offset="0.9463" style="stop-color:#C7142C"/>
			<stop  offset="1" style="stop-color:#BE1229"/>
		</radialGradient>
		
			<polygon style="clip-path:url(#SVGID_00000003791084919517579550000016928947237065991083_);fill:url(#SVGID_00000045615851801695485280000005392578799372834746_);" points="
			36.3,15.6 36.3,15.6 36.3,15.6 		"/>
	</g>
	<g>
		<defs>
			<line id="SVGID_00000124873792475381687250000010372756851943948201_" x1="36.3" y1="15.6" x2="36.3" y2="15.6"/>
		</defs>
		<clipPath id="SVGID_00000144309106894321655560000014230241407776885662_">
			<use xlink:href="#SVGID_00000124873792475381687250000010372756851943948201_"  style="overflow:visible;"/>
		</clipPath>
	</g>
	<g>
		<defs>
			<path id="SVGID_00000117668157975993704530000011999291640074847660_" d="M36.3,14.2c-0.9-1.1-2.5-2.6-3.7-3.4
				c0.1,0,0.2,0.1,0.3,0.1c0.1,0,0.1,0,0.1-0.1c0-0.3-0.6-0.7-1.1-0.9c-0.4-0.2-0.9-0.4-1.2-0.5c-0.3-0.1-0.5-0.1-0.7-0.1l0,0
				c-0.1-0.1-0.2-0.1-0.3-0.2c-0.1,0-0.3-0.1-0.6-0.2c3.1,0.3,6.1,1.4,8.6,3.1c-0.4-0.2-0.7-0.2-0.8-0.2c-0.1,0-0.2,0-0.3,0.1
				l-0.1,0.1L36.5,12l0,0.1c0.3,0.6,1.7,1.7,1.8,1.7h0C37.9,14,36.9,14.1,36.3,14.2"/>
		</defs>
		<clipPath id="SVGID_00000162338287859933879870000010001971501343261861_">
			<use xlink:href="#SVGID_00000117668157975993704530000011999291640074847660_"  style="overflow:visible;"/>
		</clipPath>
		
			<radialGradient id="SVGID_00000096756899731339312880000000112749804213446031_" cx="0" cy="55" r="1" gradientTransform="matrix(18.9449 0 0 -18.9449 27.3941 1069.5398)" gradientUnits="userSpaceOnUse">
			<stop  offset="0" style="stop-color:#E31933"/>
			<stop  offset="0.5153" style="stop-color:#E21933"/>
			<stop  offset="0.7035" style="stop-color:#DC1832"/>
			<stop  offset="0.838" style="stop-color:#D3162F"/>
			<stop  offset="0.9463" style="stop-color:#C7142C"/>
			<stop  offset="1" style="stop-color:#BE1229"/>
		</radialGradient>
		
			<rect x="29.2" y="9" style="clip-path:url(#SVGID_00000162338287859933879870000010001971501343261861_);fill:url(#SVGID_00000096756899731339312880000000112749804213446031_);" width="9.1" height="5.3"/>
	</g>
	<path class="st10" d="M39,12.8c-0.5-0.4-0.9-0.6-1.2-0.7c-2.5-1.7-5.4-2.8-8.6-3.1c-0.3-0.1-0.7-0.2-1.2-0.2c0,0,0.8,0,1.2,0.1
		C32.2,9.1,35.7,10.2,39,12.8"/>
	<g>
		<defs>
			<polyline id="SVGID_00000071556250608271085250000016441662278835304848_" points="38.3,13.8 38.3,13.8 38.3,13.8 			"/>
		</defs>
		<clipPath id="SVGID_00000155861583174610345290000013864918806662597256_">
			<use xlink:href="#SVGID_00000071556250608271085250000016441662278835304848_"  style="overflow:visible;"/>
		</clipPath>
		
			<radialGradient id="SVGID_00000017484591925291366200000003009039994749058976_" cx="0.5766" cy="55.7266" r="4.170701e-05" gradientTransform="matrix(18.9449 0 0 -18.9449 27.3941 1069.5398)" gradientUnits="userSpaceOnUse">
			<stop  offset="0" style="stop-color:#E31933"/>
			<stop  offset="0.5153" style="stop-color:#E21933"/>
			<stop  offset="0.7035" style="stop-color:#DC1832"/>
			<stop  offset="0.838" style="stop-color:#D3162F"/>
			<stop  offset="0.9463" style="stop-color:#C7142C"/>
			<stop  offset="1" style="stop-color:#BE1229"/>
		</radialGradient>
		
			<rect x="38.3" y="13.8" style="clip-path:url(#SVGID_00000155861583174610345290000013864918806662597256_);fill:url(#SVGID_00000017484591925291366200000003009039994749058976_);" width="0" height="0"/>
	</g>
	<g>
		<defs>
			<path id="SVGID_00000086651053960506663730000000339465888491630493_" d="M17.4,41.8c-1.5-0.3-2.4-0.5-3-0.8
				c-1.2-1.1-2.2-2.4-3-3.8l0,0c0.8,0.3,2.2,2.6,2.2,2.6c0.5,0.2,1.2,0.4,2,0.5c-0.8-1.2-1.4-2.5-1.9-3.9c-0.1,0.1-0.2,0.1-0.3,0.1
				c-1.1,0-2.3-2.7-1.9-3.9c0.1-0.2,0.2-0.5,0.6-0.5c0.2,0,0.4,0.1,0.6,0.3c-0.6-1.4-0.4-3.5,1-3.5c0,0,0,0,0,0
				C13.8,33.6,14.4,37.5,17.4,41.8"/>
		</defs>
		<clipPath id="SVGID_00000125573462150455890820000004992397884206570901_">
			<use xlink:href="#SVGID_00000086651053960506663730000000339465888491630493_"  style="overflow:visible;"/>
		</clipPath>
		
			<radialGradient id="SVGID_00000016774135401210091180000009500839687072653471_" cx="0" cy="55" r="1" gradientTransform="matrix(18.9449 0 0 -18.9449 27.3941 1069.5398)" gradientUnits="userSpaceOnUse">
			<stop  offset="0" style="stop-color:#E31933"/>
			<stop  offset="0.5153" style="stop-color:#E21933"/>
			<stop  offset="0.7035" style="stop-color:#DC1832"/>
			<stop  offset="0.838" style="stop-color:#D3162F"/>
			<stop  offset="0.9463" style="stop-color:#C7142C"/>
			<stop  offset="1" style="stop-color:#BE1229"/>
		</radialGradient>
		
			<rect x="11.1" y="29" style="clip-path:url(#SVGID_00000125573462150455890820000004992397884206570901_);fill:url(#SVGID_00000016774135401210091180000009500839687072653471_);" width="6.3" height="12.8"/>
	</g>
	<path class="st10" d="M14.4,41c-0.1,0-0.1-0.1-0.2-0.1c-0.1-0.1-0.1-0.1-0.2-0.1c0,0-0.9-0.9-1.7-2c-0.6-0.8-1.1-1.6-1.1-1.7l0.2,0
		C12.2,38.6,13.2,39.9,14.4,41"/>
	<g>
		<defs>
			<path id="SVGID_00000119810086958603010930000001986361429266001566_" d="M24.2,46c-0.9-0.2-1.8-0.4-2.6-0.7
				c-1.2-0.6-2.7-1.6-4.2-3.6c2.9,0.5,5.8,0.6,9.8,0.7l0,0.3c-0.1,0.5-0.6,0.9-1.4,0.9c-0.3,0-0.6-0.1-0.9-0.2
				c0.5,0.7,0.2,1.3-0.6,1.3c-0.1,0-0.2,0-0.3,0c-0.8-0.2-1.8-0.8-1.9-1.5c-1-0.1-2-0.2-2.8-0.3c0.8,0.9,1.7,1.7,2.6,2.2
				c0,0,0.1,0,0.1,0c0.1,0,0.3,0,0.7,0.2C23.2,45.5,23.7,45.8,24.2,46"/>
		</defs>
		<clipPath id="SVGID_00000165949186229221925050000003482088244865973895_">
			<use xlink:href="#SVGID_00000119810086958603010930000001986361429266001566_"  style="overflow:visible;"/>
		</clipPath>
		
			<radialGradient id="SVGID_00000004536485199542354540000006755110408284902316_" cx="0" cy="55" r="1" gradientTransform="matrix(18.9449 0 0 -18.9449 27.3941 1069.5398)" gradientUnits="userSpaceOnUse">
			<stop  offset="0" style="stop-color:#E31933"/>
			<stop  offset="0.5153" style="stop-color:#E21933"/>
			<stop  offset="0.7035" style="stop-color:#DC1832"/>
			<stop  offset="0.838" style="stop-color:#D3162F"/>
			<stop  offset="0.9463" style="stop-color:#C7142C"/>
			<stop  offset="1" style="stop-color:#BE1229"/>
		</radialGradient>
		
			<rect x="17.4" y="41.8" style="clip-path:url(#SVGID_00000165949186229221925050000003482088244865973895_);fill:url(#SVGID_00000004536485199542354540000006755110408284902316_);" width="9.8" height="4.2"/>
	</g>
	<path class="st10" d="M24.8,46.2l-0.2,0c-0.5-0.1-0.7-0.1-1-0.2c-0.5-0.1-1.2-0.3-2-0.7c0.8,0.3,1.7,0.5,2.6,0.7
		C24.4,46.1,24.6,46.1,24.8,46.2"/>
	<g>
		<defs>
			<path id="SVGID_00000005252773854942852030000016885454762771428245_" d="M27,30C27,30,27,30,27,30c-1.2,0-2.4,0-3.6-0.1
				c-0.2,0-0.3,0-0.5,0c0,0-0.1,0-0.1,0c0,0-0.1,0-0.1,0c0,0,0,0-0.1,0c0,0-0.1,0-0.1,0c0,0-0.1,0-0.1,0c-3.4-0.1-5.7-0.3-8.6-0.8
				l0,0c-0.9-0.2-1.9-0.4-2.9-0.6c-0.8-0.2-1.4-0.5-1.8-0.7c-0.2-0.1-0.3-0.2-0.4-0.3C8.8,17.8,16.2,9.9,25.6,9
				c-1,0.2-1.6,0.5-2.3,0.8c0.9-0.3,1.9-0.6,2.8-0.8c0.4,0,0.8,0,1.2,0c-0.1,0.8-0.1,4.1-0.2,7.3c0,0.7,0,1.4,0,2.1
				c0,3.1,0,6.4,0,8.6c0,0.7,0,1.4,0,2.1c0,0.4,0,0.7,0,0.9C27.1,30,27.1,30,27,30C27,30,27,30,27,30"/>
		</defs>
		<clipPath id="SVGID_00000088846096545330324150000003145118538602233765_">
			<use xlink:href="#SVGID_00000005252773854942852030000016885454762771428245_"  style="overflow:visible;"/>
		</clipPath>
		
			<radialGradient id="SVGID_00000147220945774484828640000010814350580590768058_" cx="0" cy="55" r="1" gradientTransform="matrix(18.9449 0 0 -18.9449 27.3941 1069.5398)" gradientUnits="userSpaceOnUse">
			<stop  offset="0" style="stop-color:#FFD200"/>
			<stop  offset="0.5126" style="stop-color:#FFD000"/>
			<stop  offset="0.6988" style="stop-color:#F7CA00"/>
			<stop  offset="0.8317" style="stop-color:#EDC203"/>
			<stop  offset="0.9387" style="stop-color:#DFB705"/>
			<stop  offset="1" style="stop-color:#D3AE06"/>
		</radialGradient>
		
			<rect x="8.7" y="8.9" style="clip-path:url(#SVGID_00000088846096545330324150000003145118538602233765_);fill:url(#SVGID_00000147220945774484828640000010814350580590768058_);" width="18.6" height="21.1"/>
	</g>
	<path class="st4" d="M26.1,8.9c0.4-0.1,0.8-0.1,1.2-0.2c0,0,0,0.1,0,0.1C26.9,8.9,26.5,8.9,26.1,8.9 M8.7,27.4
		c-0.1-0.1-0.1-0.1-0.1-0.2l0,0C8.8,17,17.3,8.7,27.4,8.7c-0.7,0-1.3,0.1-1.8,0.2C16.2,9.9,8.8,17.8,8.7,27.4"/>
	<path d="M23.3,9.7C24,9.4,24.6,9.2,25.6,9c0.5-0.1,1.1-0.2,1.8-0.2c-0.4,0-0.8,0.1-1.2,0.2C25.1,9.1,24.2,9.4,23.3,9.7"/>
	<g>
		<defs>
			<path id="SVGID_00000014611630620600068460000009291567098650518419_" d="M27.1,29c0-0.7,0-1.4,0-2.1
				C27.1,27.8,27.1,28.5,27.1,29"/>
		</defs>
		<clipPath id="SVGID_00000180365032160763785910000007773713815160253070_">
			<use xlink:href="#SVGID_00000014611630620600068460000009291567098650518419_"  style="overflow:visible;"/>
		</clipPath>
		
			<radialGradient id="SVGID_00000130606492080026856100000016672541753098195100_" cx="0" cy="55" r="1" gradientTransform="matrix(18.9449 0 0 -18.9449 27.3941 1069.5398)" gradientUnits="userSpaceOnUse">
			<stop  offset="0" style="stop-color:#E31B23"/>
			<stop  offset="0.5153" style="stop-color:#E11B22"/>
			<stop  offset="0.7035" style="stop-color:#DC1A21"/>
			<stop  offset="0.838" style="stop-color:#D31920"/>
			<stop  offset="0.9463" style="stop-color:#C7161D"/>
			<stop  offset="1" style="stop-color:#BE141B"/>
		</radialGradient>
		
			<rect x="27.1" y="26.9" style="clip-path:url(#SVGID_00000180365032160763785910000007773713815160253070_);fill:url(#SVGID_00000130606492080026856100000016672541753098195100_);" width="0" height="2.1"/>
	</g>
	<g>
		<defs>
			<path id="SVGID_00000162309820873659031620000012061744473799288994_" d="M22.3,29.8L22.3,29.8c-3.4-0.1-5.7-0.3-8.6-0.8
				C16.6,29.5,18.9,29.7,22.3,29.8 M22.6,29.8c0,0-0.1,0-0.1,0C22.5,29.8,22.5,29.8,22.6,29.8 M22.8,29.9c0,0-0.1,0-0.1,0
				C22.7,29.9,22.7,29.9,22.8,29.9 M23.4,29.9c-0.2,0-0.3,0-0.5,0C23.1,29.9,23.2,29.9,23.4,29.9 M27.1,30L27.1,30 M27,30
				C27,30,27,30,27,30C27,30,27,30,27,30C27,30,27,30,27,30C27,30,27,30,27,30"/>
		</defs>
		<clipPath id="SVGID_00000163058608453990644250000003114702142211244951_">
			<use xlink:href="#SVGID_00000162309820873659031620000012061744473799288994_"  style="overflow:visible;"/>
		</clipPath>
		
			<radialGradient id="SVGID_00000045594469870944800630000007186357328809227187_" cx="0" cy="55" r="1" gradientTransform="matrix(18.9449 0 0 -18.9449 27.3941 1069.5398)" gradientUnits="userSpaceOnUse">
			<stop  offset="0" style="stop-color:#E31B23"/>
			<stop  offset="0.5153" style="stop-color:#E11B22"/>
			<stop  offset="0.7035" style="stop-color:#DC1A21"/>
			<stop  offset="0.838" style="stop-color:#D31920"/>
			<stop  offset="0.9463" style="stop-color:#C7161D"/>
			<stop  offset="1" style="stop-color:#BE141B"/>
		</radialGradient>
		
			<rect x="13.8" y="29" style="clip-path:url(#SVGID_00000163058608453990644250000003114702142211244951_);fill:url(#SVGID_00000045594469870944800630000007186357328809227187_);" width="13.4" height="0.9"/>
	</g>
	<path d="M36.4,44.1c-1.1,0.6-1.3,0.6-2.7,1.2c-0.4,0.2-0.8,0.3-1.2,0.4c2.5-0.7,6-3.5,6.6-4.2c-0.3,0.7-0.5,1.1-1.3,1.7
		C37.6,43.4,36.7,43.9,36.4,44.1"/>
	<path d="M10.8,28.4c-0.8-0.2-1.4-0.5-1.8-0.7c0.2-6.8,4-12.9,9.5-16.2c-1.3,1.2-1.9,1.8-2.5,3.4C13,18.5,11,23.3,10.8,28.4"/>
	<path d="M18.6,11.5c1.4-1,2.2-1.7,4.4-2.2c1.5-0.4,2.9-0.5,4.4-0.5C24.2,8.9,21.2,10,18.6,11.5"/>
	<path d="M17.6,29.5c-1.4-0.1-2.7-0.3-3.8-0.5c0.1-3.4,0.8-6.7,2-9.6c0.5,1.9,0.9,2.9,2.2,5.2C17.8,26.2,17.6,27.9,17.6,29.5"/>
	<path d="M27.2,16.1c0,2.1,0,4.2,0,5.8c0,1.6,0,2.8,0,3c-1.9-1.9-2.8-3-4.2-4.8c0.9-5.9,2.6-10.5,4.4-11.5
		C27.3,9.3,27.2,12.6,27.2,16.1"/>
	<path d="M20.6,15.9c-1.2,2.5-2.1,5.5-2.6,8.7c1.1,1.7,1.9,2.7,4.2,5.2c0-3.4,0.3-6.6,0.8-9.6C21.5,18.4,21.1,17.5,20.6,15.9"/>
	<path d="M45.5,27.7c0,0.2,0,0.4,0,0.6c0,6.7-3.2,12.2-8.3,15.3L37,43.7c2.4-1.5,5.4-3.9,7.3-8.1c2.1-4,1.8-8.5,1.8-8.5
		C46.1,27.3,45.8,27.6,45.5,27.7"/>
	<path d="M23.3,9.7c-2.7,1.1-5.2,2.9-7.2,5.2c-0.5,1.7-0.5,2.7-0.3,4.5c1.2-2.9,2.9-5.3,4.9-7.2C21.3,11.2,21.7,10.5,23.3,9.7"/>
	<path d="M20.6,15.9c-0.3-1.5-0.4-2.3,0.1-3.7c2-1.8,4.2-3.2,6.6-3.5C24.7,9.5,22.3,12.2,20.6,15.9"/>
	<path class="st0" d="M6.5,15.3l-1.5-0.8c-0.3-0.2-0.4-0.4-0.2-0.7l0,0l-0.2-0.1l-0.7,1.4L4,15.2l0,0c0.2-0.3,0.3-0.4,0.4-0.4
		c0.1,0,0.2,0,0.5,0.2l1.3,0.7c1,0.5,0.9,1.3,0.6,1.8c-0.3,0.6-0.7,0.8-1.1,0.8c-0.2,0-0.4-0.1-0.7-0.2l-1.6-0.8
		c-0.3-0.1-0.3-0.3-0.2-0.6l0-0.1l-0.2-0.1l-0.8,1.6l0.2,0.1l0,0c0.1-0.3,0.2-0.3,0.3-0.3c0.1,0,0.2,0,0.3,0.1l1.7,0.8
		c0.3,0.1,0.5,0.2,0.8,0.2c0.6,0,1.2-0.4,1.6-1.2C7.8,16.5,7.2,15.6,6.5,15.3"/>
	<path class="st0" d="M8.4,9.2c0-0.1,0.1-0.2,0.2-0.4l0,0L8.5,8.6l-1,1.2L7.7,10l0,0C7.9,9.7,8,9.6,8.1,9.6c0.1,0,0.2,0,0.3,0.1
		l1.8,1.5L6,11.6l-0.7,0.8l0.2,0.2l0,0c0.1-0.1,0.3-0.2,0.4-0.3l2.4,2c0.2,0.2,0.2,0.3,0,0.6l-0.1,0.1L8.4,15l1-1.2l-0.2-0.1l0,0
		C9,14,8.9,14,8.8,14c-0.1,0-0.2-0.1-0.3-0.2l-2-1.7l4.7-0.3l0.2-0.2L8.5,9.4L8.4,9.2"/>
	<path class="st0" d="M13.3,9.6c-0.2,0.1-0.3,0.2-0.4,0.2c-0.1,0-0.2-0.1-0.3-0.2l-1.7-2.1c-0.3-0.3-0.2-0.4,0.1-0.7l0,0l-0.1-0.2
		L9.6,7.7l0.1,0.2l0,0c0.1-0.1,0.2-0.1,0.3-0.1c0.1,0,0.2,0.1,0.3,0.2l1.7,2.1c0.3,0.3,0.3,0.4,0,0.7l0,0l0.1,0.2l1.3-1.1L13.3,9.6
		L13.3,9.6"/>
	<path class="st0" d="M15.8,3.8L15.8,3.8l-0.1-0.2l-1.4,0.8l0.1,0.2l0,0c0.2-0.1,0.3-0.2,0.4-0.2l0.1,0.1c0,0.1,0.1,0.2,0.1,0.4
		l0.4,2.6l-2.3-1.8l-0.1-0.2c0-0.1,0.1-0.2,0.4-0.4l0,0l-0.1-0.2l-1.6,0.9L12,6l0,0c0.1-0.1,0.2-0.1,0.3-0.1c0.1,0,0.2,0.1,0.4,0.2
		l3,2.3l0.3-0.2l-0.6-3.6C15.5,4.1,15.5,3.9,15.8,3.8"/>
	<path class="st0" d="M21,4.8L21,4.8c0,0.6-0.1,0.8-0.4,0.9l-0.9,0.3l-0.2,0c-0.1,0-0.1,0-0.2-0.2l-0.4-1.2l1-0.3l0.2,0
		c0.1,0,0.2,0.1,0.3,0.3l0,0l0.2-0.1l-0.4-1.3l-0.2,0.1l0,0c0.1,0.4,0,0.5-0.2,0.5l-1,0.4L18.3,3l1.2-0.4l0.1,0
		c0.1,0,0.3,0.1,0.5,0.5l0,0l0.2-0.1L19.9,2l-3,1L17,3.3l0.2-0.1c0.1,0,0.2-0.1,0.3-0.1c0.2,0,0.2,0.1,0.3,0.3L18.6,6
		c0.1,0.2,0.1,0.3,0,0.4c0,0.1-0.2,0.2-0.4,0.2l-0.2,0.1L18.1,7l3.3-1.1l-0.2-1L21,4.8"/>
	<g>
		<defs>
			<rect id="SVGID_00000033357718100181130120000015731547758499633281_" x="0.1" y="1" width="327.8" height="54"/>
		</defs>
		<clipPath id="SVGID_00000047769994773297649030000018069937409299262904_">
			<use xlink:href="#SVGID_00000033357718100181130120000015731547758499633281_"  style="overflow:visible;"/>
		</clipPath>
		<path style="clip-path:url(#SVGID_00000047769994773297649030000018069937409299262904_);fill:#000000;" d="M27.1,4.8
			c-0.4,0-0.8-0.1-1.3-0.5l-0.6-0.4c-0.3-0.2-0.5-0.4-0.7-0.5c0.5-0.2,0.7-0.7,0.7-1.1c-0.1-0.7-0.8-1.1-1.9-1
			c-0.4,0-0.5,0.1-0.8,0.1c-0.1,0-0.2,0-0.3,0c-0.2,0-0.4,0.1-0.5,0.1l-0.1,0l0,0.2l0.2,0l0.1,0c0.2,0,0.3,0.1,0.3,0.4l0.3,2.7
			c0,0.4-0.1,0.5-0.4,0.5l-0.2,0l0,0.2l1.9-0.2l0-0.2l-0.2,0l-0.1,0c-0.2,0-0.3-0.1-0.4-0.4l-0.1-1c0.1,0,0.2,0,0.3,0
			c0.2,0,0.3,0,0.4-0.1h0c0.1,0.1,0.4,0.2,0.7,0.5l0.5,0.4C25.7,5,26,5.2,27.2,5l0.1,0L27.1,4.8L27.1,4.8 M24.5,2.3
			c0,0.3,0,0.6-0.2,0.8c-0.2,0.2-0.4,0.3-0.8,0.4l-0.1,0c-0.1,0-0.2,0-0.3,0l-0.2-2c0.1,0,0.2,0,0.3,0C24,1.4,24.5,1.7,24.5,2.3z"/>
		<path style="clip-path:url(#SVGID_00000047769994773297649030000018069937409299262904_);fill:#000000;" d="M29.5,2.8
			c-0.4-0.3-0.9-0.6-0.8-1c0-0.3,0.3-0.5,0.7-0.5c0.4,0,0.8,0.3,0.9,0.8l0,0l0.2,0l-0.1-0.9l-0.2,0l0,0l-0.1,0h0L30,1.1
			C29.9,1.1,29.7,1,29.4,1c-0.7-0.1-1.2,0.3-1.3,0.9c0,0.6,0.5,1,1,1.4C29.6,3.6,30,3.9,30,4.3c0,0.5-0.5,0.7-0.9,0.6
			c-0.5,0-0.9-0.4-1-0.9l0,0l-0.2,0L28,5.1l0.2,0l0,0l0.1,0h0l0.2,0.1c0.2,0.1,0.5,0.2,0.7,0.2l0.1,0h0c0.7,0,1.3-0.4,1.3-1
			C30.6,3.6,30,3.1,29.5,2.8"/>
	</g>
	<path class="st0" d="M32.2,1.7L32.2,1.7c0.4,0.1,0.4,0.2,0.4,0.5L32,4.8c-0.1,0.3-0.2,0.4-0.3,0.4l-0.2,0l-0.1,0l0,0.2L33,5.8
		l0-0.2l-0.1,0c-0.2,0-0.3-0.1-0.4-0.2c0-0.1-0.1-0.2,0-0.4l0.6-2.6C33.3,2,33.4,2,33.6,2c0.1,0,0.1,0,0.2,0l0.1,0l0-0.2l-1.6-0.4
		L32.2,1.7"/>
	<path class="st0" d="M38.8,3.5L38.8,3.5l-0.2,0l-2.9-1.1l-0.1-0.1l0,0l0,0l-0.2-0.1l-0.5,1l0.2,0.1l0,0c0.2-0.4,0.4-0.5,0.5-0.5
		l0.1,0l1,0.4L35.7,6c-0.1,0.2-0.2,0.3-0.3,0.3c-0.1,0-0.2,0-0.3-0.1l-0.3-0.1l-0.1,0.2l2,0.8l0.1-0.2l-0.3-0.1
		c-0.2-0.1-0.3-0.1-0.3-0.2c0-0.1,0-0.2,0-0.3l1.1-2.9l1,0.4c0.2,0.1,0.3,0.2,0.1,0.8l0,0l0.2,0.1L39,3.5L38.8,3.5L38.8,3.5"/>
	<path class="st0" d="M42.6,6L42.6,6c0.2,0.1,0.3,0.2,0.3,0.3c0,0.1-0.1,0.1-0.2,0.2l-1.5,0.7l0-1.8c0-0.3,0.1-0.3,0.1-0.3
		c0.1,0,0.2,0.1,0.3,0.2l0,0l0.1-0.2l-1.5-1l-0.1,0.2l0,0c0.3,0.2,0.4,0.4,0.4,0.9l0,2.1L40,8.2c-0.2,0.3-0.3,0.3-0.6,0.1l-0.1-0.1
		l-0.1,0.2l1.5,1l0.1-0.2l-0.1-0.1c-0.2-0.1-0.2-0.2-0.3-0.3c0-0.1,0-0.2,0.1-0.3l0.5-0.8L43,6.9c0.2-0.1,0.3-0.1,0.4-0.1
		c0.1,0,0.3,0,0.5,0.1l0,0L44,6.7l-1.3-0.9L42.6,6"/>
	<path class="st0" d="M48.8,11.5c-0.5-0.6-1.2-1-1.9-1c-0.5,0-0.9,0.2-1.3,0.5c-0.9,0.7-1,2.1-0.2,3.1c0.5,0.6,1.1,1,1.9,1h0
		c0.5,0,0.9-0.2,1.3-0.5C49.5,13.9,49.6,12.6,48.8,11.5 M48.8,12.8c-0.1,0.5-0.4,1-0.8,1.3c-0.4,0.3-0.8,0.4-1.2,0.4
		c-0.4,0-0.8-0.2-1.1-0.6c-0.6-0.8-0.4-1.9,0.5-2.6c0.4-0.3,0.8-0.4,1.2-0.4c0.5,0,0.8,0.2,1.1,0.6C48.7,11.9,48.9,12.4,48.8,12.8z"
		/>
	<path class="st0" d="M50.9,14.9L50.7,15l0,0c0.2,0.4,0.1,0.4-0.3,0.6l-2.3,1.1c-0.2,0.1-0.3,0.1-0.4,0.1c-0.1,0-0.2-0.1-0.3-0.3
		l0,0l-0.2,0.1l0.7,1.5l0.2-0.1l0,0C48,17.8,48,17.7,48,17.6c0-0.1,0.1-0.1,0.3-0.2l1.2-0.6l0.5,1c0.1,0.2,0.1,0.4-0.2,0.5l0,0
		l0.1,0.2l1.1-0.5l-0.1-0.2l0,0c-0.2,0.1-0.4,0.1-0.5-0.1l-0.5-1.1l1.3-0.6l0.5,1c0.1,0.3,0.1,0.5-0.2,0.6l0,0l0.1,0.2l0.8-0.4
		L50.9,14.9"/>
	<path class="st0" d="M5.2,43.5l2.3-4.2l0,0l-3.1,2c-0.4,0.2-0.2,0.5,0,0.8l-0.1,0.1l-1-1.4l0.1-0.1c0.3,0.5,0.5,0.5,1.1,0.1
		l2.7-1.7c0.5-0.3,0.6-0.4,0.3-0.8l0.1-0.1l0.7,1l-2.2,4l4.5-0.8l0.7,1l-0.1,0.1c-0.3-0.3-0.4-0.4-0.6-0.2l-2.8,2.4
		c-0.6,0.5-0.5,0.5-0.2,1l-0.1,0.1l-1.2-1.7l0.1-0.1c0.2,0.3,0.5,0.6,0.9,0.3l2.8-2.3l0,0l-4.7,0.9L5.2,43.5"/>
	<path class="st0" d="M13.2,47.9l-1.1-0.8l1.7-1.1L13.2,47.9 M13.1,48.3l-0.4,1.5c0,0.1,0,0.2-0.1,0.3c-0.1,0.2-0.3,0.1-0.7-0.2
		l-0.2-0.1L11.6,50l1.8,1.3l0.1-0.1c-0.3-0.2-0.4-0.4-0.3-0.9l1.3-4.7L14,45.3l0,0.2l-3.6,2.4c-0.6,0.4-0.8,0.4-1.2,0.1l-0.1,0.1
		l1.5,1.1l0.1-0.1L10.6,49c-0.4-0.3-0.5-0.5-0.4-0.6c0.1-0.1,0.3-0.2,0.4-0.3l1.1-0.8L13.1,48.3z"/>
	<g>
		<defs>
			<rect id="SVGID_00000131329208570671847670000007027253326543096713_" x="0.1" y="1" width="327.8" height="54"/>
		</defs>
		<clipPath id="SVGID_00000122701248361524416480000007161234371009374095_">
			<use xlink:href="#SVGID_00000131329208570671847670000007027253326543096713_"  style="overflow:visible;"/>
		</clipPath>
		<path style="clip-path:url(#SVGID_00000122701248361524416480000007161234371009374095_);fill:#000000;" d="M18.4,48.2
			c0.1,0,0.2,0.1,0.4,0.1c1.2,0.4,1.3,1.1,1.1,1.8c-0.3,0.9-1,1.1-1.9,0.8c-0.2-0.1-0.3-0.1-0.5-0.2L18.4,48.2 M17.4,50.9
			c0.1,0,0.2,0.1,0.4,0.2c0.2,0.1,0.3,0.1,0.5,0.2c0.1,0.2,0.3,0.5,0.5,1l0.3,0.7c0.4,0.9,0.7,1.3,2.1,1.8l0-0.1
			c-0.6-0.2-0.9-0.7-1.2-1.3l-0.4-0.8c-0.2-0.5-0.4-0.8-0.6-1.1c0.7,0,1.3-0.3,1.5-0.9c0.3-0.8-0.2-1.6-1.6-2.1
			c-0.5-0.2-0.7-0.2-1-0.3c-0.3-0.1-0.8-0.2-1-0.3L17,47.8l0.2,0.1c0.4,0.2,0.5,0.3,0.4,0.8l-1.1,3.2c-0.2,0.5-0.4,0.6-0.8,0.4
			l-0.1,0l-0.1,0.1l2.2,0.8l0.1-0.1L17.4,53c-0.4-0.2-0.6-0.3-0.4-0.8L17.4,50.9z"/>
		<path style="clip-path:url(#SVGID_00000122701248361524416480000007161234371009374095_);fill:#000000;" d="M26.7,50.7
			c0.3-0.4,0.2-0.6-0.4-0.6l0-0.2l1.8,0.2l0,0.2c-0.6,0-0.8,0.2-1.1,0.6L25.5,53l-0.1,1.2c0,0.4,0.1,0.6,0.6,0.7l0.1,0l0,0.2
			l-2.2-0.2l0-0.2l0.2,0c0.5,0,0.7-0.1,0.7-0.5l0.1-1.1l-1.3-2.4c-0.3-0.7-0.5-0.8-1-0.9l0-0.2l2.2,0.2l0,0.2
			c-0.6-0.1-0.7,0.1-0.5,0.5l1.1,2.1L26.7,50.7"/>
		<path style="clip-path:url(#SVGID_00000122701248361524416480000007161234371009374095_);fill:#000000;" d="M33.5,54.4L29.9,55
			l0-0.2l0.3,0c0.4-0.1,0.5-0.2,0.4-0.6l-0.6-3.6c-0.1-0.4-0.2-0.6-0.7-0.5l-0.1,0l0-0.2l2.4-0.4l0,0.2l-0.3,0.1
			c-0.5,0.1-0.6,0.2-0.6,0.7l0.6,3.7c0,0.2,0.1,0.3,0.4,0.2l1.2-0.2c0.5-0.1,0.6-0.3,1-1.1l0.1,0L33.5,54.4"/>
	</g>
	<path class="st0" d="M37.4,50.3l-1.3,0.5l-0.1-2L37.4,50.3 M37.6,50.6l1.1,1.2c0.1,0.1,0.2,0.2,0.2,0.3c0.1,0.2,0,0.3-0.5,0.5
		l-0.2,0.1l0.1,0.1l2.1-0.9l-0.1-0.1c-0.4,0.2-0.6,0.1-0.9-0.2L36.1,48l-0.7,0.3l0.1,0.1l0.2,4.3c0,0.8,0,0.9-0.5,1.1l0.1,0.1
		l1.7-0.7L37,53.1l-0.1,0.1c-0.4,0.2-0.6,0.2-0.7,0c0-0.1,0-0.4,0-0.5l-0.1-1.4L37.6,50.6z"/>
	<path class="st0" d="M46.5,47.4l-6.1-0.7l2.2,2.7c0.4,0.5,0.6,0.5,1.1,0l0.1,0.1l-1.5,1.2l-0.1-0.1l0,0c0.4-0.3,0.4-0.6,0.2-0.8
		l-2.6-3.1c-0.2,0-0.4,0.1-0.7,0.3l-0.1-0.1l1-0.8l5.5,0.6l-2.1-2.5c-0.3-0.4-0.5-0.4-1,0l-0.1-0.1l1.5-1.2L44,43
		c-0.5,0.4-0.5,0.6-0.3,0.8l2.9,3.5L46.5,47.4"/>
	<g>
		<defs>
			<rect id="SVGID_00000021836525764433461250000004971565017254083485_" x="0.1" y="1" width="327.8" height="54"/>
		</defs>
		<clipPath id="SVGID_00000078007437556046272560000000222530965405802882_">
			<use xlink:href="#SVGID_00000021836525764433461250000004971565017254083485_"  style="overflow:visible;"/>
		</clipPath>
		<path style="clip-path:url(#SVGID_00000078007437556046272560000000222530965405802882_);fill:#000000;" d="M45.3,41.1
			c0-0.1,0.1-0.3,0.3-0.6c0.6-1,1.2-1.3,1.7-1.4c0.7-0.1,1.3,0.1,1.8,0.4c0.7,0.5,1,1.1,1.1,1.5c0.2,0.7,0,1.2-0.6,2.1
			c-0.3,0.5-0.5,0.5-0.7,0.3L45.3,41.1 M48.4,44c0.4,0.3,0.4,0.5,0.2,0.9L48.5,45l0.1,0.1l1.4-2.2c1.1-1.7,0.4-3.3-0.6-4
			c-1.1-0.7-2.6-0.5-3.7,1.3c-0.2,0.4-0.5,0.8-0.7,1.2c-0.2,0.4-0.4,0.7-0.6,1l0.1,0.1l0.1-0.1c0.3-0.4,0.4-0.4,0.9-0.2L48.4,44z"/>
		<path style="clip-path:url(#SVGID_00000078007437556046272560000000222530965405802882_);fill:#000000;" d="M1.2,26.2v3.5
			c0,0.2,0,0.2,0.2,0.2h0.3V30H0.2v-0.1h0.3c0.2,0,0.2-0.1,0.2-0.2v-3c-0.2,0.2-0.5,0.4-0.8,0.5l0-0.1c0.3-0.2,0.8-0.7,1-0.9H1.2"/>
	</g>
	<path class="st0" d="M4.7,29.2c0,0.5-0.3,0.8-0.8,0.8c-0.5,0-0.8-0.4-0.8-0.9c0-0.4,0.2-0.7,0.6-0.9C4.4,28.5,4.7,28.8,4.7,29.2
		 M5,27.1c0-0.5-0.5-0.9-1.1-0.9c-0.6,0-1.1,0.4-1.1,1c0,0.4,0.3,0.7,0.8,1c-0.6,0.2-0.9,0.6-0.9,1c0,0.5,0.5,1,1.2,1
		c0.7,0,1.2-0.5,1.2-1.1c0-0.5-0.3-0.8-0.9-1.1C4.7,27.7,5,27.4,5,27.1z M4.6,27c0,0.3-0.2,0.6-0.5,0.8c-0.8-0.3-1-0.6-1-0.9
		c0-0.4,0.3-0.7,0.7-0.7C4.3,26.3,4.6,26.6,4.6,27z"/>
	<path class="st0" d="M49.7,26.6h1.4c0.1,0,0.1,0,0.2-0.1h0.1L51.4,27h-1.5l0,1.1c0.2-0.1,0.4-0.2,0.6-0.2c0.7,0,1.2,0.6,1.2,1.2
		c0,0.7-0.6,1.3-1.4,1.3c-0.5,0-0.9-0.2-0.9-0.4c0-0.1,0.1-0.2,0.2-0.2c0.3,0,0.4,0.4,0.8,0.4c0.4,0,0.8-0.5,0.8-1
		c0-0.6-0.4-1-0.9-1c-0.2,0-0.5,0.1-0.6,0.2l-0.1,0L49.7,26.6"/>
	<path class="st0" d="M54.3,29.3c0,0.7-0.3,1.1-0.7,1.1c-0.4,0-0.8-0.3-0.8-1.3c0-0.2,0-0.3,0-0.4c0.4-0.3,0.6-0.4,0.8-0.4
		C54,28.3,54.3,28.7,54.3,29.3 M54.4,26.5c-1.3,0.4-2,1.2-2,2.4c0,0.9,0.5,1.6,1.3,1.6c0.6,0,1.2-0.6,1.2-1.2c0-0.6-0.5-1.1-1.1-1.1
		c-0.3,0-0.5,0.1-0.9,0.3C53,27.6,53.5,27,54.4,26.5L54.4,26.5z"/>
	<path class="st0" d="M132.8,24.9c-1.8,0-3.3-0.3-5.4-3.6c-0.3-0.5-1.7-2.6-2-3h-3.2v3.2c0,2.1,0.2,2.6,2.6,2.6v0.4h-6.9v-0.4
		c2.3,0,2.3-0.6,2.3-2.7v-9.6c0-1.2-0.4-1.7-2.3-1.7V9.8c2-0.2,4.1-0.3,6.1-0.3c1.9,0,3,0.2,4,0.7c1,0.5,2.4,1.6,2.4,3.6
		c0,0.6-0.2,2.9-3.1,3.9l2.9,4.4c1.1,1.7,1.9,2.3,2.7,2.4V24.9 M122.1,17.9h1c1.1,0,1.8,0,2.7-0.3c1.7-0.5,2.3-2.3,2.3-3.8
		c0-1-0.3-2.6-1.9-3.4c-1.2-0.6-2.7-0.5-4-0.5V17.9z"/>
	<path class="st0" d="M206.7,24.9c-1.8,0-3.3-0.3-5.4-3.6c-0.3-0.5-1.7-2.6-2-3h-3.2v3.2c0,2.1,0.2,2.6,2.6,2.6v0.4h-6.9v-0.4
		c2.3,0,2.3-0.6,2.3-2.7v-9.6c0-1.2-0.4-1.7-2.3-1.7V9.8c2-0.2,4.1-0.3,6.1-0.3c1.9,0,3,0.2,4,0.7c1,0.5,2.4,1.6,2.4,3.6
		c0,0.6-0.2,2.9-3.1,3.9l2.9,4.4c1.1,1.7,1.9,2.3,2.7,2.4V24.9 M196.1,17.9h1c1.1,0,1.8,0,2.7-0.3c1.7-0.5,2.3-2.3,2.3-3.8
		c0-1-0.3-2.6-1.9-3.4c-1.2-0.6-2.7-0.5-4-0.5V17.9z"/>
	<path class="st0" d="M128.3,46.9c-1.8,0-3.3-0.3-5.4-3.6c-0.3-0.5-1.7-2.6-2-3h-3.2v3.2c0,2.1,0.2,2.6,2.6,2.6v0.4h-6.9v-0.4
		c2.3,0,2.3-0.6,2.3-2.7v-9.6c0-1.2-0.4-1.7-2.3-1.7v-0.4c2-0.2,4.1-0.3,6.1-0.3c1.9,0,3,0.2,4,0.7c1,0.5,2.4,1.6,2.4,3.6
		c0,0.6-0.2,2.9-3.1,3.9l2.9,4.4c1.1,1.7,1.9,2.3,2.7,2.4V46.9 M117.7,39.9h1c1.1,0,1.8,0,2.7-0.3c1.7-0.5,2.3-2.3,2.3-3.8
		c0-1-0.3-2.6-1.9-3.4c-1.2-0.6-2.7-0.5-4-0.5V39.9z"/>
	<path class="st0" d="M327.8,46.9c-1.8,0-3.3-0.3-5.4-3.6c-0.3-0.5-1.7-2.6-2-3h-3.2v3.2c0,2.1,0.2,2.6,2.6,2.6v0.4h-6.9v-0.4
		c2.3,0,2.3-0.6,2.3-2.7v-9.6c0-1.2-0.4-1.7-2.3-1.7v-0.4c2-0.2,4.1-0.3,6.1-0.3c1.9,0,3,0.2,4,0.7c1,0.5,2.4,1.6,2.4,3.6
		c0,0.6-0.2,2.9-3.1,3.9l2.9,4.4c1.1,1.7,1.9,2.3,2.7,2.4V46.9 M317.2,39.9h1c1.1,0,1.8,0,2.7-0.3c1.7-0.5,2.3-2.3,2.3-3.8
		c0-1-0.3-2.6-1.9-3.4c-1.2-0.6-2.7-0.5-4-0.5V39.9z"/>
</g>
</svg>
